<?xml version="1.0" encoding="UTF-8"?>
<svg xmlns="http://www.w3.org/2000/svg" xmlns:xlink="http://www.w3.org/1999/xlink" viewBox="0 0 475.65 456.18">
  <defs>
    <style>
      .cls-1 {
        fill: url(#linear-gradient-10);
      }

      .cls-1, .cls-2, .cls-3, .cls-4, .cls-5, .cls-6, .cls-7, .cls-8, .cls-9 {
        opacity: .14;
      }

      .cls-2 {
        fill: url(#linear-gradient-12);
      }

      .cls-10 {
        fill: url(#linear-gradient-2);
      }

      .cls-3 {
        fill: url(#linear-gradient-14);
      }

      .cls-11 {
        letter-spacing: 0em;
      }

      .cls-12 {
        letter-spacing: 0em;
      }

      .cls-13 {
        fill: #fff;
        font-family: SnugSharpVF-CmpNormal, 'Snug Sharp VF';
        font-size: 49.86px;
        font-variation-settings: 'XHGT' 100, 'wdth' 1, 'wght' 350;
      }

      .cls-4 {
        fill: url(#linear-gradient-13);
      }

      .cls-14, .cls-15, .cls-16 {
        fill: blue;
      }

      .cls-17 {
        fill: url(#linear-gradient-4);
      }

      .cls-18 {
        fill: url(#radial-gradient);
      }

      .cls-19 {
        fill: url(#radial-gradient-3);
      }

      .cls-20 {
        letter-spacing: 0em;
      }

      .cls-5 {
        fill: url(#linear-gradient-9);
      }

      .cls-6 {
        fill: url(#linear-gradient-7);
      }

      .cls-21 {
        fill: url(#linear-gradient-3);
      }

      .cls-22 {
        fill: url(#linear-gradient-5);
      }

      .cls-23 {
        fill: #354aff;
      }

      .cls-7 {
        fill: url(#linear-gradient-6);
      }

      .cls-24 {
        letter-spacing: -.02em;
      }

      .cls-25 {
        fill: url(#radial-gradient-2);
      }

      .cls-15 {
        font-family: CCUltimatumVelocityVariable-HeavyItalic, CCUltimatumVelocity;
        font-size: 78px;
        font-style: italic;
        font-variation-settings: 'wght' 900, 'ital' 15;
        font-weight: 800;
      }

      .cls-8 {
        fill: url(#linear-gradient-11);
      }

      .cls-26 {
        letter-spacing: 0em;
      }

      .cls-16 {
        opacity: .07;
      }

      .cls-9 {
        fill: url(#linear-gradient-8);
      }

      .cls-27 {
        fill: url(#linear-gradient);
      }

      .cls-28 {
        fill: #a8c000;
      }
    </style>
    <linearGradient id="linear-gradient" x1="122.11" y1="400.79" x2="322.52" y2="53.67" gradientUnits="userSpaceOnUse">
      <stop offset=".02" stop-color="#45c7ff"/>
      <stop offset="1" stop-color="#539cff"/>
    </linearGradient>
    <linearGradient id="linear-gradient-2" x1="448.67" y1="228.09" x2="450.59" y2="228.09" gradientUnits="userSpaceOnUse">
      <stop offset=".11" stop-color="#81e2ff"/>
      <stop offset=".65" stop-color="#b1e9ff"/>
    </linearGradient>
    <linearGradient id="linear-gradient-3" x1="58.83" y1="257.09" x2="391.17" y2="257.09" gradientUnits="userSpaceOnUse">
      <stop offset=".31" stop-color="#7fd6ff"/>
      <stop offset=".62" stop-color="#2d65ee"/>
      <stop offset=".63" stop-color="#3864f3"/>
      <stop offset=".98" stop-color="#00ddfc"/>
    </linearGradient>
    <linearGradient id="linear-gradient-4" x1="16.39" y1="296.63" x2="418.62" y2="296.63" gradientUnits="userSpaceOnUse">
      <stop offset=".31" stop-color="#7fd6ff"/>
      <stop offset=".62" stop-color="#2d65ee"/>
      <stop offset=".63" stop-color="#3864f3"/>
      <stop offset=".85" stop-color="#00ddfc"/>
    </linearGradient>
    <linearGradient id="linear-gradient-5" x1="19.82" y1="347.33" x2="432.22" y2="347.33" gradientUnits="userSpaceOnUse">
      <stop offset=".31" stop-color="#7fd6ff"/>
      <stop offset=".62" stop-color="#2d65ee"/>
      <stop offset=".64" stop-color="#3864f3"/>
      <stop offset=".82" stop-color="#04d4fb"/>
      <stop offset=".83" stop-color="#07cdfb"/>
      <stop offset=".98" stop-color="#00ddfc"/>
    </linearGradient>
    <radialGradient id="radial-gradient" cx="238.08" cy="288.31" fx="327.17" fy="265.45" r="91.98" gradientTransform="translate(-68.25 -178.42) rotate(-8.04) scale(1 1.75)" gradientUnits="userSpaceOnUse">
      <stop offset=".26" stop-color="#05a7f5"/>
      <stop offset=".32" stop-color="#0daaf5"/>
      <stop offset=".41" stop-color="#23b2f6"/>
      <stop offset=".52" stop-color="#48c1f8"/>
      <stop offset=".65" stop-color="#7bd4fb"/>
      <stop offset=".77" stop-color="#b4ebff"/>
    </radialGradient>
    <linearGradient id="linear-gradient-6" x1="142.85" y1="228.67" x2="327.87" y2="228.67" xlink:href="#linear-gradient-3"/>
    <linearGradient id="linear-gradient-7" x1="141.07" y1="234.45" x2="331.25" y2="234.45" xlink:href="#linear-gradient-3"/>
    <linearGradient id="linear-gradient-8" x1="142.06" y1="226.75" x2="325.44" y2="226.75" xlink:href="#linear-gradient-3"/>
    <linearGradient id="linear-gradient-9" x1="140.7" y1="230.04" x2="327.07" y2="230.04" xlink:href="#linear-gradient-3"/>
    <linearGradient id="linear-gradient-10" x1="141.86" y1="225.09" x2="323.83" y2="225.09" xlink:href="#linear-gradient-3"/>
    <linearGradient id="linear-gradient-11" x1="140.62" y1="232.88" x2="330.2" y2="232.88" xlink:href="#linear-gradient-3"/>
    <linearGradient id="linear-gradient-12" x1="142.79" y1="223.12" x2="322.51" y2="223.12" xlink:href="#linear-gradient-3"/>
    <linearGradient id="linear-gradient-13" x1="143.06" y1="225.43" x2="325.09" y2="225.43" xlink:href="#linear-gradient-3"/>
    <linearGradient id="linear-gradient-14" x1="141.02" y1="228.19" x2="325.93" y2="228.19" xlink:href="#linear-gradient-3"/>
    <radialGradient id="radial-gradient-2" cx="235.12" cy="296.69" fx="235.12" fy="296.69" r="53.31" gradientTransform="translate(-48.2 -64.11) scale(1.22 1.2)" gradientUnits="userSpaceOnUse">
      <stop offset="0" stop-color="#6acbff"/>
      <stop offset=".02" stop-color="#86d4ff"/>
      <stop offset=".05" stop-color="#a6e0ff"/>
      <stop offset=".09" stop-color="#c2e9ff"/>
      <stop offset=".13" stop-color="#d8f1ff"/>
      <stop offset=".18" stop-color="#e9f7ff"/>
      <stop offset=".23" stop-color="#f6fbff"/>
      <stop offset=".31" stop-color="#fdfeff"/>
      <stop offset=".51" stop-color="#fff"/>
      <stop offset=".56" stop-color="#fafdfe"/>
      <stop offset=".62" stop-color="#ecf9fd"/>
      <stop offset=".69" stop-color="#d4f3fb"/>
      <stop offset=".75" stop-color="#b3eaf8"/>
      <stop offset=".82" stop-color="#89def4"/>
      <stop offset=".9" stop-color="#56cff0"/>
      <stop offset=".97" stop-color="#1abfeb"/>
      <stop offset="1" stop-color="#00b8e9"/>
    </radialGradient>
    <radialGradient id="radial-gradient-3" cx="244.61" cy="290.47" fx="263.58" fy="296.95" r="37.53" gradientTransform="translate(-374.99 -722.39) rotate(-19.57) scale(1 4)" gradientUnits="userSpaceOnUse">
      <stop offset="0" stop-color="#007ac0"/>
      <stop offset=".09" stop-color="#1782d1"/>
      <stop offset=".21" stop-color="#328ce5"/>
      <stop offset=".34" stop-color="#4593f3"/>
      <stop offset=".47" stop-color="#5197fc"/>
      <stop offset=".6" stop-color="#59f"/>
    </radialGradient>
  </defs>
  <g id="Layer_4" data-name="Layer 4">
    <polygon class="cls-27" points="229.57 0 18.01 340.69 228.93 456.18 229.57 0"/>
    <polygon class="cls-10" points="229.57 0 442.43 333.47 229.57 456.18 229.57 0"/>
  </g>
  <g id="Layer_3" data-name="Layer 3">
    <path class="cls-21" d="M62.74,270.96c5.14-6.33,10.96-12.13,17.5-17.25,6.56-5.06,13.92-9.52,22.51-12.01,2.14-.63,4.36-1.09,6.64-1.36,2.27-.29,4.62-.4,6.97-.23,4.72.3,9.46,1.55,13.79,3.89,4.33,2.34,7.96,5.74,10.72,9.28,2.78,3.55,4.86,7.17,6.85,10.51,1.99,3.34,3.9,6.41,6.2,8.93,2.28,2.53,5.01,4.55,8.31,5.85.8.37,1.67.59,2.52.89.87.21,1.74.47,2.65.6,1.79.36,3.65.45,5.53.47,1.88,0,3.78-.2,5.68-.47,1.89-.34,3.79-.71,5.65-1.28,7.49-2.16,14.55-5.93,21.2-10.22,1.67-1.07,3.29-2.21,4.92-3.36,1.61-1.16,3.19-2.37,4.77-3.58,3.17-2.4,6.22-5,9.29-7.56l4.58-3.91c1.48-1.31,2.98-2.58,4.43-3.91,1.47-1.31,2.89-2.66,4.32-4.02,1.44-1.34,2.86-2.71,4.31-4.11,1.45-1.39,2.92-2.83,4.62-4.26,1.68-1.42,3.61-2.95,6.21-4.14,2.57-1.21,5.65-1.77,8.24-1.75,2.62-.01,5.36.39,7.94,1.29,2.58.89,4.94,2.24,6.96,3.74,2.02,1.51,3.77,3.15,5.31,4.79,3.07,3.3,5.58,6.57,8.03,9.6,4.88,6.06,9.65,11.16,15.5,14.52,1.43.89,2.96,1.6,4.51,2.29.8.3,1.58.63,2.39.9l2.46.77c3.31.92,6.76,1.53,10.33,1.66,1.77.17,3.57.02,5.38.03,1.81-.14,3.63-.24,5.45-.53,3.65-.48,7.31-1.29,10.94-2.32,3.62-1.06,7.21-2.33,10.73-3.86,1.77-.78,3.46-1.59,5.16-2.47,1.7-.86,3.37-1.82,5.01-2.82,6.54-4.07,12.6-9.14,18.05-15.05l1.07.74c-3.67,7.31-8.86,13.98-15.12,19.61-1.58,1.39-3.2,2.75-4.89,4.03-1.69,1.27-3.49,2.45-5.26,3.56-3.59,2.22-7.34,4.25-11.27,5.91-3.92,1.69-8.02,3.03-12.26,4.06-2.11.54-4.28.87-6.46,1.23-1.1.14-2.2.24-3.31.34-1.1.13-2.22.15-3.34.17-1.12,0-2.24.1-3.37.01l-3.39-.21c-1.13-.06-2.25-.31-3.38-.46-1.13-.18-2.26-.32-3.37-.64-4.49-.94-8.87-2.64-12.96-4.91-4.09-2.26-7.77-5.17-10.98-8.32-3.19-3.18-5.94-6.58-8.39-9.91-2.48-3.31-4.69-6.55-6.96-9.25-2.26-2.72-4.51-4.72-6.86-5.7-1.18-.5-2.45-.79-3.84-.89-1.42-.08-2.4.04-3.52.43-1.11.39-2.47,1.23-3.95,2.27-1.46,1.05-3.03,2.24-4.63,3.46-6.33,5-13.44,9.65-20.24,13.78-3.42,2.16-6.91,4.24-10.37,6.36-1.74,1.05-3.49,2.08-5.25,3.09-1.74,1.04-3.52,2.03-5.29,3.04-7.1,3.96-14.37,7.72-22.19,10.47-3.9,1.39-7.97,2.48-12.21,3.07-2.13.27-4.29.45-6.5.38-1.1.01-2.2-.14-3.32-.21-1.1-.17-2.22-.28-3.32-.56-4.44-.89-8.83-3.04-12.46-5.92-3.67-2.88-6.52-6.37-8.99-9.69-2.49-3.32-4.65-6.54-6.91-9.25-2.26-2.71-4.6-4.9-7.3-6.49-2.71-1.53-5.83-2.61-9.11-2.98-3.28-.45-6.76-.21-10.28.43-7.06,1.33-14.18,4.37-21.07,8-6.91,3.66-13.63,7.98-20.43,12.37l-.87-.97Z"/>
    <path class="cls-17" d="M22.63,318.87c2.73-4.68,5.7-9.22,8.95-13.58,3.23-4.38,6.74-8.59,10.53-12.61,3.8-4.01,7.93-7.81,12.51-11.25,4.6-3.4,9.65-6.49,15.46-8.62,1.44-.56,2.95-.99,4.47-1.43l2.34-.52c.78-.16,1.6-.26,2.4-.38,3.23-.42,6.61-.47,9.98.02,6.73.97,13.16,4.03,18.21,8.38,5.03,4.34,8.66,9.52,11.46,14.57,1.4,2.54,2.67,5.05,3.8,7.56,1.15,2.48,2.2,4.94,3.23,7.33,1.05,2.39,2.03,4.72,3.11,6.94,1.04,2.24,2.15,4.38,3.35,6.36,2.41,3.96,5.28,7.35,9.05,9.63,1.88,1.13,3.95,2.06,6.16,2.65,2.21.56,4.55.82,6.95.82,2.4-.05,4.83-.4,7.27-.92,2.41-.64,4.85-1.33,7.2-2.34,9.47-3.92,18.04-10.23,25.91-17.15,7.91-6.94,15.02-14.79,22.04-22.77,1.74-2,3.53-4.03,5.22-6.03,1.7-1.99,3.38-3.99,5.02-6.01,3.29-4.06,6.42-8.19,9.69-12.41,1.64-2.11,3.3-4.27,5.26-6.49,1.95-2.2,4.13-4.61,7.63-6.77.93-.5,1.84-1.01,2.82-1.44,1.03-.37,2.06-.8,3.12-1.02,2.16-.5,4.2-.65,6.19-.58,3.93.1,8.05,1.3,11.41,3.22,3.38,1.9,6.08,4.3,8.3,6.7,2.22,2.41,4.07,4.85,5.75,7.27,3.32,4.84,6.06,9.52,8.75,14,2.72,4.44,5.33,8.72,8.18,12.55,1.42,1.94,2.86,3.74,4.36,5.48,1.53,1.67,3.09,3.29,4.73,4.71,3.23,2.96,6.87,5.13,10.73,6.89,3.89,1.69,8.06,2.64,12.42,2.98,8.74.61,18.2-1.58,27.21-5.44,4.51-1.96,8.91-4.24,13.17-6.97,4.21-2.63,8.25-5.67,12.09-9.03,7.72-6.7,14.52-14.73,20.79-23.39l1.6.82c-3.53,10.25-8.75,20.06-15.64,28.89-3.46,4.4-7.34,8.54-11.66,12.29-4.23,3.72-8.89,7.11-13.85,10.03-4.96,2.95-10.31,5.4-16,7.25-5.69,1.82-11.79,2.96-18.08,3.03-6.28.09-12.74-.97-18.77-3.18-6.03-2.18-11.68-5.52-16.48-9.57-4.83-4.05-8.86-8.71-12.26-13.49-3.42-4.8-6.26-9.69-8.87-14.47-2.62-4.75-4.99-9.43-7.48-13.53-2.46-4.07-5.15-7.61-7.6-9.17-1.22-.81-2.33-1.24-3.72-1.4-.67-.08-1.3-.07-1.75-.02-.26,0-.45.13-.7.13-.24.08-.5.22-.78.29-1.14.52-2.81,1.88-4.53,3.52-1.72,1.63-3.54,3.51-5.4,5.41-1.85,1.91-3.77,3.83-5.71,5.75-1.94,1.9-3.95,3.78-5.96,5.62l-3.04,2.75-3.1,2.68c-2.07,1.78-4.1,3.46-6.16,5.19-8.22,6.91-16.54,13.78-25.08,20.4-8.57,6.58-17.41,12.92-27.4,17.78-2.5,1.2-5.09,2.29-7.78,3.21-2.7.91-5.5,1.62-8.4,2.08-2.92.42-5.93.53-8.98.28-3.05-.31-6.09-1-9.04-2.12-5.95-2.23-11.02-6.43-14.98-10.95-3.97-4.56-6.98-9.49-9.68-14.24-1.35-2.37-2.63-4.71-3.86-7-1.26-2.26-2.46-4.47-3.71-6.55-2.48-4.18-5.09-7.82-8.04-10.57-1.49-1.36-3.09-2.43-4.79-3.36-1.71-.91-3.52-1.62-5.42-1.98-3.78-.81-7.97-.59-12.33.56-4.35,1.13-8.79,3.08-13.11,5.48-2.17,1.19-4.32,2.49-6.44,3.89-2.14,1.36-4.23,2.86-6.32,4.37-8.37,6.09-16.33,13.11-24.49,20.12l-1.39-1.15Z"/>
    <path class="cls-22" d="M24.55,365.97c6.3-8.24,13.44-15.87,21.53-22.67,4.07-3.37,8.37-6.54,13.04-9.31,2.32-1.4,4.75-2.66,7.26-3.82,2.5-1.18,5.14-2.15,7.85-2.98,1.35-.43,2.75-.76,4.15-1.1,1.42-.27,2.84-.56,4.31-.71,2.91-.35,5.91-.49,8.92-.21,3.01.28,6.02.85,8.93,1.79,2.91.95,5.73,2.28,8.36,3.9,5.31,3.25,9.48,7.8,12.73,12.37,1.63,2.3,3.08,4.61,4.39,6.91,1.33,2.28,2.55,4.54,3.75,6.73,2.4,4.38,4.74,8.45,7.58,11.89,1.41,1.72,2.96,3.28,4.67,4.63,1.73,1.33,3.62,2.46,5.68,3.37,4.11,1.85,8.8,2.67,13.58,2.61,2.39-.04,4.81-.32,7.22-.74,2.4-.49,4.81-1.04,7.16-1.84,4.73-1.52,9.32-3.6,13.73-6.01,4.43-2.39,8.7-5.11,12.83-8.04,2.07-1.45,4.1-2.98,6.11-4.53,2-1.56,3.96-3.18,5.92-4.8,3.93-3.22,7.7-6.66,11.5-10.07l5.65-5.19c1.83-1.73,3.68-3.44,5.47-5.2,1.81-1.74,3.57-3.53,5.32-5.34,1.78-1.79,3.52-3.6,5.3-5.45,1.78-1.85,3.58-3.74,5.66-5.63,2.06-1.88,4.4-3.9,7.63-5.51.83-.37,1.66-.74,2.52-1.06.88-.26,1.78-.55,2.67-.74.89-.15,1.8-.32,2.68-.4.86-.05,1.72-.09,2.58-.12,3.35.02,6.87.67,10.07,1.97,3.21,1.29,6.04,3.15,8.44,5.16,2.41,2.02,4.46,4.17,6.31,6.33,3.64,4.32,6.65,8.6,9.62,12.63,2.97,4.02,5.88,7.79,9.01,11.14,3.14,3.32,6.43,6.3,10.07,8.65,7.21,4.8,15.82,7.47,24.85,7.9,9.05.43,18.5-1.26,27.64-4.31,4.58-1.54,9.07-3.38,13.46-5.58,4.37-2.16,8.58-4.62,12.61-7.46,8.06-5.68,15.38-12.66,21.93-20.54l1.27.8c-4.42,9.41-10.62,18.15-18.27,25.62-.94.95-1.95,1.83-2.93,2.75-1,.89-2.03,1.75-3.06,2.63-1.06.83-2.12,1.66-3.2,2.48l-3.3,2.34c-4.44,3-9.16,5.69-14.09,7.96-9.85,4.53-20.72,7.64-32.19,7.89-11.43.29-23.36-2.66-33.37-9.01-1.28-.75-2.44-1.64-3.65-2.48-1.14-.91-2.34-1.78-3.41-2.75l-1.64-1.43-1.56-1.49c-1.06-.98-2.01-2.03-2.98-3.07-1.89-2.1-3.66-4.25-5.33-6.43-1.65-2.17-3.2-4.38-4.67-6.54-2.97-4.32-5.64-8.57-8.44-12.23-2.79-3.63-5.67-6.53-8.66-7.93-1.5-.72-3.08-1.13-4.85-1.26-1.8-.09-3.06.06-4.48.62-1.42.56-3.16,1.74-4.99,3.17-1.82,1.43-3.74,3.05-5.7,4.7-1.95,1.64-3.95,3.33-5.97,4.98-2.03,1.64-4.1,3.25-6.2,4.82-2.08,1.59-4.22,3.11-6.35,4.62l-6.35,4.4c-4.22,2.96-8.52,5.83-12.8,8.74-2.15,1.44-4.31,2.86-6.49,4.26-2.15,1.43-4.36,2.79-6.55,4.18-4.4,2.75-8.88,5.37-13.47,7.82-2.3,1.22-4.64,2.38-7,3.51-2.39,1.06-4.78,2.16-7.26,3.07-4.92,1.9-10.09,3.39-15.51,4.14-5.41.71-11.14.6-16.73-.9-2.79-.75-5.55-1.83-8.14-3.26-2.58-1.45-4.97-3.21-7.13-5.15-4.34-3.89-7.7-8.42-10.64-12.77-2.97-4.34-5.56-8.61-8.34-12.28-2.78-3.68-5.67-6.81-9.06-9.03-1.69-1.12-3.52-2-5.44-2.76-1.93-.73-3.96-1.21-6.04-1.51-4.16-.61-8.59-.3-13.06.64-8.97,1.92-17.9,6.28-26.45,11.35-8.57,5.12-16.83,11.1-25.15,17.19l-1.05-1.07Z"/>
  </g>
  <g id="Layer_1" data-name="Layer 1">
    <g>
      <path class="cls-18" d="M307.98,231.4c16.92,27.15,29.64,60.03,22.4,91.19-8.11,40.58-51.26,68.13-96.02,63.71-41.05-3.01-81.78-30.98-93.08-67.25-9.65-29.47,2.88-61.1,19.44-86.59,7.22-11.23,14.65-20.8,20.92-29.42,26.28-29.9,27.99-78.96,32.79-113.61.92-5.25,3.16-9.37,7.14-3.62,5.3,7.13,15.52,29.6,27.03,51.12,16.68,33.54,38.06,62.05,58.91,93.72l.47.76Z"/>
      <g>
        <path class="cls-7" d="M304.17,253.53c2.8,3.66,5.07,7.62,6.83,11.88l-.21-.43c3.44,7.7,6.64,15.37,8.85,23.53s3.44,15.75,3.4,23.85c-.1,17.97-6.88,35.29-21.81,47.87-23.15,19.51-59.98,22.28-88.47,12.85-14.01-4.64-27.23-12.68-38.21-22.51-4.63-4.15-8.99-8.77-12.78-13.71-2.48-3.22-4.73-6.61-6.73-10.15-12.22-23.25-12.06-44.45.49-63.59,2.52-6.85,5.95-13.18,10.29-18.98,2.38-3.34,4.85-6.61,7.41-9.82l3.89-4.74c3.41-3.87,6.7-7.85,9.85-11.95,2.78-3.33,5.6-6.64,8.46-9.91,2.65-3.04,5.28-6.11,7.87-9.2,1.92-1.68,3.64-3.53,5.14-5.56,2.38-2.92,4.4-6.05,6.07-9.41,8.55-15.71,11.97-33.83,14.25-51.4,2.35-18.02,3.22-36.2,5.21-54.26l-.07.5.43-1.42c-1.59,2.11-3.19,4.22-4.78,6.33l5.56-6.9-10.98,10.29c2.64,3.54,5.28,7.09,7.92,10.63-1.76-3.01-3.51-6.02-5.27-9.03l4.7,13.3c-.79-3.18-1.58-6.36-2.37-9.54.81,5.03,1.61,10.07,2.42,15.1l-.61-4.92c.99,9.91,1.64,19.75,4.26,29.38,2.29,8.41,5.32,16.62,8.89,24.57,7.68,17.13,17.61,33.22,27.9,48.87,10.31,15.69,21.13,31.05,31.58,46.66l-.25-.4c.08.29.22.54.33.81.72,1.8.69-4.79.68-3.84,0-2.46-.04-4.92-.11-7.38.03-1.29-.07-2.56-.31-3.83-.06-.12-.14-.24-.17-.37l-.25-.4c-3.9-5.88-7.83-11.74-11.8-17.58-6.48-9.56-13.04-19.09-19.27-28.82-7.43-11.59-14.38-23.42-21.1-35.44l.22.4c-3.2-6.14-6.57-12.14-9.02-18.62-1.8-4.77-3.26-9.66-4.8-14.51-1.2-3.8-2.42-7.56-3.21-11.47-.39-1.84-.75-3.68-1.09-5.53-.44-2.92-1.22-5.75-2.33-8.5l1.2,11.82c-.12-6.78,1.28-13.14,4.19-19.08,1.22-2.19,1.96-4.51,2.22-6.97.54-1.85.51-3.71-.08-5.58-.55-1.11-1.4-1.63-2.55-1.57-.62.11-1.13.43-1.54.95-1.63,1.49-3.23,3.03-4.8,4.59-1.58,1.55-3.13,3.13-4.64,4.75-.52.41-.84.92-.96,1.53-.15.93-.25,1.83-.26,2.77-.04,2.88-.47,5.69-.82,8.56-1.39,11.3-2.58,22.62-4.29,33.88-1.62,10.62-3.68,21.17-6.83,31.44-1.53,4.99-3.3,9.84-5.44,14.6-2.56,5.69-5.66,10.82-9.05,16.06l.3-.41-4.58,6.2.3-.4c-8.15,9.47-15.89,19.31-22.99,29.6-5.09,7.37-10.21,14.65-14.55,22.5-8.95,16.2-15.03,34.31-12.47,53,2.38,17.35,11.66,32.98,23.94,45.23,13.7,13.66,31.54,23.96,50.28,28.89,8.47,2.23,17.25,3.68,26.03,3.84,9.76.18,19.52-1.19,28.87-3.95,16.88-4.99,32.78-14.81,43.01-29.37,11.71-16.67,14.41-37.85,10.84-57.57-1.74-9.6-4.94-18.86-8.56-27.89-2.19-5.46-4.56-10.83-6.38-16.43-1.4-4.3-1.44-4.1-3.71-9.17-.45.39-.71.9-.78,1.53-.56,2.01-1.06,4.04-1.52,6.08-.49,2.03-.92,4.08-1.31,6.13-.22.59-.21,1.17.03,1.71Z"/>
        <path class="cls-6" d="M303.61,257.68c3.79,6.19,7.2,12.41,9.99,19.12,2.76,6.63,4.88,13.36,6.73,20.31l-.17-.75c.5,2.53.99,5.06,1.49,7.59l-.14-.76c.73,4.5,1.09,9.04,1.09,13.6.04,3.36-.23,6.69-.83,9.99-.38,3.31-1.09,6.55-2.13,9.72-4.2,15.18-16.06,24.06-35.59,26.63-10.95,14.34-24.11,21.19-39.5,20.56-4.23-.03-8.43-.34-12.62-.94-6.33-.99-12.6-2.52-18.69-4.52-12.13-3.97-23.59-10.21-33.65-18.04-10.63-8.27-19.86-18.5-26.18-30.44-1.46-2.6-2.72-5.29-3.75-8.1-5.36-24.57-2.11-46.09,9.75-64.55,3.78-6.14,7.94-12.03,12.41-17.68l3.88-4.81c3.41-3.92,6.69-7.94,9.85-12.07,5.49-6.65,11.04-13.32,16.8-19.74,2.74-2.41,5.07-5.15,6.99-8.23,2.28-3.03,4.19-6.29,5.74-9.77,3.52-7.31,5.86-15.1,7.85-22.94,2.06-8.14,3.32-16.49,4.45-24.8,1.3-9.62,1.81-19.32,3.13-28.94l-11.84-19.78c4,10.04,8,20.07,12,30.11-1.35-5.64-2.71-11.28-4.06-16.92,3.56,16.25,6.35,31.92,12.23,47.38,3.27,8.58,7.07,16.9,11.31,25.06,6.41,12.34,13.83,24.2,21.46,35.81,10.31,15.69,21.12,31.05,31.55,46.66l-.26-.73c.14.54.38,1.02.58,1.52.35-.95.46-1.94.33-2.97-.01-3.73-.08-7.45-.2-11.17-.09-3.72-.23-7.45-.42-11.17.07-1.04-.09-2.02-.49-2.95-.05-.14-.1-.28-.16-.43-1.65-4.41-4.22-8.36-7.72-11.83-2.54-3.86-5.08-7.72-7.61-11.59-12.43-19.02-24.34-38.3-35.12-58.31-3.28-6.09-6.57-12.13-9.3-18.49-2.11-4.93-3.89-9.94-6.37-14.7-1.48-2.83-2.95-5.68-4.4-8.53l-3.32-5.22-2.67-4.3c-1.07-1.72-2.46-3.19-4.14-4.41,2.89,7.41,5.78,14.83,8.67,22.24.08-5.27,1.43-10.13,4.05-14.58,1.12-3.41,2.2-6.83,3.23-10.27.71-2.5.65-4.96-.2-7.38-.72-1-1.66-1.4-2.81-1.2-.76.22-1.4.64-1.93,1.27-2.13,1.91-4.22,3.85-6.27,5.84-2.08,1.96-4.12,3.96-6.12,6-.65.5-1.11,1.12-1.36,1.87,0,1.53.15,3.02.25,4.54-.66,4.6-1.3,9.21-1.92,13.82l-1.02,7.34c-2.2,15.6-4.78,31.27-9.56,46.31-4.57,14.35-11.47,27.71-20.64,39.67-2.41,2.82-4.71,5.74-6.89,8.74-2.52,3.33-4.98,6.7-7.39,10.1-4.62,6.67-8.92,13.53-13.17,20.44-10.13,16.47-17.99,35.54-17.71,55.14.37,25.77,15.43,48.31,35.29,63.71,20.98,16.27,47.26,25.07,73.84,24.13,13.74-.49,27.62-4.34,39.74-10.79,7.81-4.15,15.31-9.58,21.33-16.12,4.48-4.87,8.28-10.13,11.48-15.94s5.7-12.54,6.95-18.97c2.58-13.29,1.81-26.74-1.19-39.88-3.55-15.55-10.36-29.91-15.26-45.03l.17.76c-.68-4.37-1.83-8.61-3.44-12.72-.58.83-.93,1.76-1.07,2.78-.92,3.6-1.8,7.21-2.62,10.83-.85,3.61-1.66,7.24-2.41,10.88-.33.98-.42,1.97-.26,2.97Z"/>
        <path class="cls-9" d="M303.04,251.86c9.3,15.95,16.95,34,18.42,52.59.35,4.47.27,8.98-.09,13.44-1.34,16.62-8.47,29.22-19.63,39.19-5.82,5.2-12.46,9.29-19.59,12.45-1.79.87-3.63,1.61-5.52,2.22-9.72,3.88-20.07,4.29-31.04,1.22-10.88,2.94-21.3,2.69-31.23-.73-2.03-.56-4.03-1.25-5.97-2.07-7.95-3.04-15.49-6.97-22.56-11.71s-13.5-10.16-19.26-16.36c-13.59-14.63-24.13-34.49-21.25-55.7,1.06-7.82,3.36-15.27,6.65-22.44,3.17-5.56,6.34-11.13,9.5-16.69l3.49-5.04c2.39-3.33,4.89-6.6,7.46-9.79s5.27-6.22,7.89-9.33c3.92-4.65,7.67-9.42,11.64-14.03,3.54-4.11,7.01-8.31,10.64-12.34l4.85-5.14,4.25-6.03c2.82-4.49,5.12-9.46,7.01-14.4,4.5-11.73,6.9-24.22,8.65-36.62,1.54-10.9,2.49-21.87,3.37-32.85.39-4.91.79-9.81,1.24-14.72.2-2.36.43-4.71.71-7.07-.12-2.14.38-4.11,1.49-5.92-2.13,2.52-4.26,5.05-6.4,7.57l6.65-7.23-8.76,8.39,6.63-4.12-5.5,3.11,1.09-.07-.35-.14c2.48,6.25,3.92,12.79,4.31,19.62l-.25-6.62c-.23,10.01-.95,20.13.86,30.05.75,4.13,2.04,8.31,3.29,12.34,1.91,6.15,4.34,12.39,7.03,18.24,9.74,21.19,22.45,40.78,35.46,60.06,3.97,5.8,7.94,11.6,11.9,17.41,4.02,5.85,7.99,11.73,11.9,17.65.11.27.22.56.32.83.59,1.53.67-3.65.67-2.84,0-1.81-.05-3.62-.14-5.43.02-.96-.08-1.9-.32-2.82-.04-.07-.11-.15-.13-.23-1.09-2.13-2.42-4.12-3.99-5.97-2.61-3.92-5.24-7.81-7.9-11.69-11.66-17.14-23.57-34.22-33.84-52.24-2.23-4.01-4.47-8.03-6.7-12.04-2.2-4.23-4.39-8.46-6.59-12.69-1.73-3.85-3.23-7.81-4.6-11.81l-1.77-5.46c-1.28-3.59-2.2-7.28-2.75-11.05-.7-2.61-1.12-5.25-1.25-7.93-.29-2.93-.45-5.86-.49-8.81l-.22,5.31c.31-6.3,1.39-12.49,3.21-18.57,1.07-2.12,1.76-4.34,2.07-6.67.55-1.82.57-3.67.05-5.53-.52-1.11-1.35-1.65-2.49-1.61-.53.04-.98.28-1.33.73-.97.86-1.92,1.75-2.84,2.66-1.17,1.12-2.32,2.26-3.46,3.42-.84.76-1.58,1.61-2.22,2.54-.49,1.7-.6,3.28-.67,5.04l.03-.44c-1.17,9.78-2.17,19.58-3.23,29.38l.05-.44-.98,8.26.06-.43c-1.47,10.88-3.27,21.56-5.73,32.26l.12-.42-2.29,8.13.14-.41c-.9,2.62-1.8,5.23-2.7,7.85l.16-.4c-1.05,2.49-2.11,4.97-3.16,7.46l.18-.39c-1.21,2.33-2.42,4.66-3.64,6.99l.2-.38c-2.59,4.09-5.19,8.11-8.2,11.92-2.53,2.72-4.95,5.54-7.26,8.45-1.74,2.13-3.48,4.26-5.2,6.4-3.81,4.71-7.5,9.5-11.06,14.4-3.42,4.72-6.96,9.34-10.21,14.18-9.87,14.72-18.27,31.32-19.66,49.24-3.06,39.39,29.75,71.51,64.22,84.43,17.17,6.44,35.96,8.86,54.1,5.67,17.84-3.13,35.52-11.46,47.83-24.97,12.29-13.48,17.73-31.6,16.95-49.63-.46-10.69-2.91-21.15-6.52-31.2-2.05-5.71-4.56-11.25-6.91-16.84s-4.08-10.85-5.91-16.38c-.14-.43-.16-.36-.47-.11l-.39.92c-.33,1.11-.62,2.24-.88,3.37-.42,1.74-.83,3.48-1.16,5.24-.13.66-.46,1.72-.08,2.36Z"/>
        <path class="cls-5" d="M302.3,253.8c2.05,2.86,3.79,5.89,5.24,9.08,1.63,3.21,3.15,6.48,4.55,9.81l-.21-.5c3.09,7.78,5.84,15.5,7.49,23.73,1.35,6.76,1.98,13.48,1.64,20.37-.05,3.34-.43,6.65-1.12,9.93-8.03,38.97-42.28,55.54-102.76,49.72-6.13-1.74-12.09-3.91-17.85-6.65-11.48-5.48-22.14-12.92-31.12-21.94-4.39-4.41-8.32-9.22-11.83-14.36-2.24-3.35-4.22-6.85-5.94-10.49-7.02-29.15-3.16-54.1,11.6-74.86,3.47-5.08,7.18-9.96,11.08-14.72,1.91-2.38,3.88-4.71,5.91-6.99,3.74-4.79,7.61-9.49,11.6-14.08,1.83-2.11,3.65-4.22,5.48-6.33,3.14-3.89,6.46-7.62,9.96-11.18,3.24-3.95,5.96-8.57,8.2-13.15,7.29-14.92,10.28-31.67,12.49-47.98,2.44-18.01,3.24-36.2,5.24-54.26l-.06.49.42-1.4-4.63,6.19,5.4-6.79c-3.56,3.34-7.12,6.69-10.68,10.03,2.4,5.23,4.8,10.47,7.2,15.7-1.16-3.94-2.32-7.87-3.49-11.81,1.05,5.39,2.1,10.77,3.15,16.16l-1.31-9.03c1.4,11.25,2.19,22.73,5.24,33.69,2.35,8.45,5.43,16.8,9.09,24.77,6.85,14.91,15.14,29.09,24.01,42.88,11.42,17.74,23.6,34.99,35.34,52.53l-.24-.48c.08.28.22.53.33.81.17.66.33.66.49,0,.21-1.51.28-3.03.22-4.55.02-2.92,0-5.84-.06-8.76.04-1.53-.06-3.04-.28-4.55-.06-.13-.14-.26-.17-.39-1.12-2.28-2.51-4.41-4.17-6.38-3.89-5.86-7.81-11.69-11.75-17.5-7.68-11.45-15.43-22.87-22.57-34.66-7.23-11.93-13.92-24.11-20.42-36.45l.23.47c-3.13-7.65-5.74-15.43-8.37-23.26-1.33-3.66-2.43-7.39-3.3-11.19-.67-3.65-1.79-7.16-3.35-10.53l1.85,13.65c.28-6.64,1.76-12.95,4.45-18.91,1.11-2.17,1.8-4.46,2.09-6.85.54-1.79.52-3.59-.08-5.39-.56-1.06-1.4-1.55-2.52-1.47-.6.1-1.11.41-1.51.92-1.59,1.46-3.14,2.95-4.66,4.48-1.54,1.51-3.04,3.05-4.51,4.63-.51.4-.82.9-.92,1.5-.23,1.55-.24,2.98-.2,4.56l.06-.49c-2.06,16.38-3.59,32.84-6.47,49.1-1.41,7.96-3.15,15.81-5.52,23.54-1.08,3.79-2.38,7.5-3.9,11.14-1.9,4.65-4.13,9.13-6.71,13.44l.27-.41-4.23,6.49.29-.4-4.29,5.78c-2.49,2.75-4.87,5.58-7.13,8.51-3.53,4.43-7.03,8.88-10.41,13.42-4.06,5.46-8.02,11.03-11.82,16.67-2.35,3.48-4.63,7.02-6.75,10.65-9.4,16.11-16.37,34.47-14.59,53.42,1.77,18.92,11.87,36.15,25.27,49.26,14.2,13.9,32.66,24.22,52.02,28.82,8.8,2.09,17.78,3.21,26.82,3.19,9.94-.02,19.99-1.93,29.38-5.14,17.95-6.14,34.11-17.86,43.53-34.56,10.13-17.97,11.05-39.17,6.35-58.93-1.45-6.1-3.35-12.05-5.56-17.91-1.65-4.38-3.5-8.68-5.24-13.03-1.38-3.22-2.55-6.52-3.51-9.88-.84-3.15-2.01-6.17-3.51-9.07-.48.49-.76,1.09-.84,1.81-.64,2.37-1.23,4.76-1.78,7.16-.57,2.39-1.09,4.79-1.56,7.21-.24.68-.26,1.35-.04,2Z"/>
        <path class="cls-1" d="M302.28,252.02c1.15,1.63,2.31,3.26,3.46,4.89l3.07,6.47c2.55,5.47,4.95,10.97,6.89,16.68,1.51,4.46,2.74,8.96,3.65,13.58.53,2.24.89,4.51,1.07,6.8,1.07,6.47.37,12.9-2.1,19.3.5,6.71-.75,12.88-3.74,18.5-1.14,2.64-2.56,5.12-4.27,7.44-2.22,3.06-4.68,5.98-7.41,8.59-5.52,5.29-12.1,9.59-18.99,12.87-4.47,2.13-9.13,3.8-13.89,5.15-1.92.61-3.87,1.09-5.85,1.45-11.22,2.76-22.57,1.4-34.04-4.1-12.48,1.53-23.78-.54-33.9-6.21-1.91-.93-3.77-1.97-5.56-3.1-3.66-2.18-7.17-4.54-10.56-7.11-7.5-5.68-14.38-12.28-20.08-19.78l-3.54-5c-3.84-14.57-7.68-29.13-11.52-43.7.57-4.87,1.81-9.61,3.43-14.22,1.32-3.76,2.9-7.37,4.7-10.93,1.82-3.81,3.99-7.42,6.53-10.83,2.07-3.72,4.41-7.26,7.01-10.62,2.46-3.29,5-6.51,7.63-9.67,3.96-4.76,7.93-9.5,11.9-14.25,3.67-4.4,7.5-8.68,11.25-13.01,1.72-2,3.43-4.01,5.15-6.01,1.62-1.71,3.23-3.42,4.85-5.13,3.17-3.85,5.7-8.32,7.96-12.75s3.08-7.1,4.53-11.36c4.06-11.91,6.27-24.34,7.87-36.8,1.05-8.21,1.76-16.46,2.44-24.71.53-6.36,1-12.73,1.58-19.09.19-2.36.43-4.71.7-7.07-.13-2.15.37-4.12,1.5-5.92-2.34,2.72-4.68,5.45-7.01,8.17l8.46-7.78c-2.73,2.13-5.47,4.26-8.2,6.38l.78-.2-.38-.06c2.62,1.17,3.82,2.98,3.59,5.43.52,4.64.61,9.29.27,13.95.13,2.76.02,5.51-.31,8.24-.29,1.94-.46,3.88-.49,5.83-.12,10.33,3.02,20.53,6.54,30.13,7.92,21.64,20.12,41.46,32.68,60.67,7.68,11.75,15.77,23.23,23.69,34.82,5.38,7.88,6.34,7.59,8.24,12.64.47,1.25.68-2.57.67-1.98,0-1.26-.05-2.51-.12-3.77.02-.68-.08-1.32-.32-1.95-9.21-13.68-18.58-27.24-27.74-40.96-8.93-13.37-17.53-26.96-25.04-41.19-2.19-4.26-4.38-8.53-6.58-12.79-1.77-3.85-3.36-7.76-4.77-11.76-1.32-3.52-2.47-7.1-3.45-10.73-1.44-3.58-2.16-7.3-2.14-11.17-.07-4.63.15-9.25.67-13.84.11-1.73.22-3.46.32-5.19.23-3.48,1.02-6.82,2.37-10.02l1.42-4.46c.78-2.56.87-5.14.28-7.72-.49-1.13-1.31-1.68-2.46-1.66-.48,0-.88.2-1.2.6-.86.75-1.69,1.52-2.5,2.32-1.03.98-2.04,1.98-3.03,2.99-.75.66-1.39,1.41-1.93,2.25-.57,1.55-.78,3.04-.93,4.67-.69,7.1-1.53,14.19-2.23,21.29-1.56,15.9-3.23,31.81-6.79,47.41-1.75,7.68-4.19,15.21-7.34,22.43-2.93,6.73-6.98,12.9-11.54,18.63-3.45,3.7-6.76,7.53-9.91,11.49l-5.44,6.58c-5.31,6.5-10.3,13.25-15.35,19.95-7.72,10.25-14.49,21.34-19.32,33.24s-6.61,24.33-4.96,36.89c1.61,12.25,7.29,23.72,14.46,33.61,8.11,11.17,19.16,20.35,30.98,27.34,21.99,13.01,48.46,18.86,73.72,13.93,16.2-3.16,32.07-10.48,43.8-22.3,8.44-8.51,14.05-19.15,16.71-30.82,2.83-12.43,1.92-25.32-1.12-37.6-1.74-7.03-4.16-13.77-7.05-20.4-1.44-3.34-2.92-6.66-4.45-9.97-1.53-4.06-3.23-8.06-5.1-11.98-.47-1.05-1.37,2.6-1.43,2.81-.29,1.19-.57,2.39-.78,3.59-.1.56-.27,1.16.08,1.65Z"/>
        <path class="cls-8" d="M302.96,256.21c2.07,2.94,3.86,6.03,5.38,9.28,1.68,3.22,3.22,6.5,4.64,9.84,2.76,6.64,4.89,13.38,6.74,20.34l-.15-.68c.49,2.51.98,5.01,1.47,7.52l-.12-.68c.68,5.67,1.19,11.21.89,16.94s-1.06,11.09-2.81,16.32c-.78,2.07-1.56,4.15-2.34,6.22-22.27,13.59-44.54,27.19-66.81,40.78-5.24.32-10.5.1-15.72-.49-19.93-2.25-39.75-10.56-55.42-23.07-7.38-5.89-14.08-12.55-19.64-20.2-2.96-4.06-5.72-8.37-7.82-12.95l-2.33-5.45c2.79-20.62,5.58-41.24,8.38-61.86,2.36-4.45,5.51-8.7,8.46-12.79s6.14-8.25,9.44-12.19c3.32-3.98,6.56-8,9.83-12.03,5.42-6.67,11.15-13.11,16.71-19.67l-.38.44c1.78-1.85,3.52-3.72,5.24-5.62,3.1-3.97,5.72-8.23,7.87-12.79,3.43-7.37,5.97-15.08,7.92-22.96,4.36-17.67,6.06-36,7.36-54.11l-8.95-15.56,7.96,18.91c-1.76-5.05-3.52-10.1-5.28-15.15,2.2,7.37,4.39,14.74,6.59,22.12l-1.16-4.96c1.45,7.59,2.76,15.21,4.92,22.64,2.22,7.6,4.97,15.07,8.13,22.33,6.97,15.99,15.83,31.08,25.26,45.72,11.43,17.75,23.62,35,35.36,52.55l-.22-.65c.14.51.36.97.56,1.46.39-.81.55-1.68.47-2.61.12-2.32.21-4.64.26-6.97.09-2.9.15-5.8.19-8.71.1-2.02.06-4.03-.11-6.04-.05-.16-.11-.31-.16-.47l-.22-.65-7.82-11.78c-14.04-21.08-28.14-42.04-40.75-64.03-4.59-8-9.36-16.01-12.83-24.57-1.98-4.88-3.71-9.84-5.94-14.62-2.09-4.49-4.19-8.93-6.48-13.32l-2.57-5.04c-.98-1.48-2.1-2.85-3.38-4.11,2.09,6.25,4.18,12.5,6.27,18.74-.08-5.17,1.04-10,3.37-14.49,1.29-3.28,2.49-6.59,3.6-9.93.79-2.47.83-4.94.13-7.4-.65-1.02-1.55-1.46-2.68-1.3-.7.17-1.29.54-1.78,1.13-1.94,1.73-3.84,3.49-5.7,5.29-1.89,1.78-3.74,3.6-5.55,5.45-.6.46-1.01,1.03-1.21,1.72-.1,1.53,0,3.02.06,4.54-.48,3.43-.94,6.86-1.38,10.3-.47,3.63-.94,7.27-1.42,10.9-2.08,15.62-4.33,31.47-9.04,46.56-2.3,7.37-4.92,14.7-8.55,21.54-2.86,5.39-6.1,10.52-9.69,15.45-2.05,2.94-4.28,5.75-6.68,8.42-2.51,3.22-4.97,6.48-7.39,9.76-4.47,6.01-8.62,12.2-12.71,18.46-6.86,10.51-13.19,21.38-17.41,33.25-4.09,11.49-6.34,24.09-4.6,36.27,3.52,24.67,19.32,45.19,39.41,59.16,10.31,7.17,21.62,12.51,33.64,16.16,13.07,3.97,27.45,5.56,41.04,3.89,25.32-3.11,49.76-15.65,63.53-37.69,2.93-4.7,5.42-9.69,7.15-14.96,2.12-6.46,3.24-12.97,3.91-19.72.7-7,.13-14.83-1.07-21.75-1.26-7.26-3.09-14.41-5.52-21.37-2.03-5.81-4.34-11.51-6.64-17.21-1.36-3.26-2.59-6.57-3.7-9.93-.95-4.23-2.41-8.28-4.38-12.14-.55.71-.88,1.53-.99,2.45-.83,3.18-1.61,6.37-2.33,9.57-.76,3.2-1.46,6.4-2.12,9.62-.3.88-.36,1.76-.19,2.64Z"/>
        <path class="cls-2" d="M302.21,252.31c6.56,9.29,11.4,20.24,14.65,31.12,2.3,7.71,3.7,15.58,3.9,23.63s-.7,15.32-3.18,22.65c-6.72,19.9-25.77,34.49-45.42,40.43-13.54,4.09-28.06,5.08-42.02,2.85-4.19-.67-8.31-1.63-12.36-2.88-24.08-25.1-48.15-50.21-72.23-75.31-.94-7.82.25-15.81,2.57-23.28,2.08-6.68,5.14-12.97,8.63-19.01,5.78-10.01,12.78-19.25,20.3-28.02,7.11-8.29,14.15-16.63,21.31-24.89l5.17-6c3.57-3.28,6.61-6.99,9.14-11.13,5.72-9.07,9.13-19.46,11.63-29.81,2-8.26,3.29-16.66,4.38-25.08,1.41-10.82,2.16-21.73,3.02-32.61.37-4.96.79-9.91,1.26-14.85-.28-3.09.21-5.99,1.46-8.71l-4.21,5.09c1.7-1.9,3.39-3.8,5.09-5.7l-6.41,6.23,3.67-1.83-2.4.79c4.95,4.33,6.19,9.79,3.71,16.4-.85,5-1.71,9.99-2.56,14.99-1.64,8.2-1.94,4.26-.34,11.75.83,3.92,1.69,7.86,2.68,11.74,1.56,6.11,3.71,12.07,6.13,17.89,9.81,23.58,23.71,45.11,38.05,66.14,6.63,9.71,13.34,19.37,19.89,29.13,2.26,3.37,3.25,4.08,4.27,6.68.21.52.62.4.83-.02.26-.54.22-2.3-.08-2.83-1.28-2.32-2.66-4.08-4.32-6.54-7.84-11.66-15.9-23.17-23.74-34.83-14.06-20.89-27.3-42.43-36.39-66-2.08-5.39-3.92-10.96-5.06-16.64-2-7.45-1.83-14.7.51-21.75.36-2.39.72-4.78,1.07-7.17,1.1-5.23,2.3-10.44,3.59-15.63l.42-4.43c.25-2.05-.38-3.68-1.89-4.88-.84-.09-1.67.04-2.49.38-.92.18-3.13,3.25-3.44,3.62-.92,1.09-2.68,2.58-3.01,3.98-.79,3.37-1.01,6.82-1.36,10.26-.76,7.38-1.34,14.78-2.05,22.17-1.41,14.72-3.04,29.44-6.58,43.82-1.57,6.39-3.53,12.65-6.09,18.72-2.86,6.79-6.88,12.99-11.49,18.7-2.58,2.69-5.05,5.47-7.42,8.34-2.7,3.19-5.4,6.38-8.1,9.57-5.39,6.47-10.62,13.13-15.75,19.81-14.12,18.4-26.66,39.58-26.34,63.5.08,5.94,1.29,12.51,3.19,18.14s4.4,11.27,7.64,16.37c6.16,9.69,13.94,18.05,22.98,25.11,27.87,21.76,66.99,30.8,100.63,17.73,9.68-3.76,18.71-8.88,26.29-16.02,4.13-3.88,7.59-8.17,10.44-13.07,2.53-4.35,4.4-9.01,5.9-13.8,1.94-6.19,2.68-13.18,2.63-19.64s-1-13.83-2.69-20.38c-1.79-6.94-4.11-13.75-7.1-20.27-2.84-6.17-6.05-12.16-9.21-18.17-.38-.72-.89.63-.93.73-.19.57-.78,2.11-.37,2.7Z"/>
        <path class="cls-4" d="M303.55,252.44c2.93,3.3,5.12,7.04,6.56,11.23,2.11,4.35,4.01,8.79,5.73,13.32,3.23,8.72,5.62,17.91,6.26,27.22,1.18,16.97-3.19,33.87-14.13,46.5-3.77,4.35-8.18,8.01-12.9,11.27-13.03,8.99-29.33,13.48-45.01,14.23-32.93,1.58-66.45-14.9-86.84-39.94-12.55-15.41-20.28-36.99-16.07-56.77,2.97-13.96,10.64-26.93,18.77-38.34,4.76-6.68,10.09-12.85,15.38-19.11,3.76-4.78,7.64-9.45,11.65-14.02,2.72-3.08,5.41-6.19,8.08-9.33,2.34-2.84,4.81-5.56,7.42-8.15,1.72-1.98,3.21-4.12,4.45-6.4,4.17-6.77,7.1-14.21,9.41-21.79,6.45-21.23,7.9-43.7,9.66-65.7l-.03.43c.39-4.95.82-9.91,1.29-14.85-.35-3.39.28-6.51,1.88-9.37l-7.78,8.98c3.05-2.84,6.11-5.67,9.16-8.51-3.03,2.41-6.06,4.81-9.09,7.22l.7-.2-.41-.03c2.27,2.08,3.47,4.58,3.61,7.52.91,4.54,1.47,9.13,1.69,13.77l-.05-3.76c-.35,4.71-.69,9.26-.88,13.97-.13,3.21.32,6.41.7,9.58.63,5.26,2.16,10.36,3.73,15.41,1.9,6.13,4.34,12.32,7.02,18.15,9.76,21.18,22.45,40.76,35.48,60.03,3.97,5.8,7.95,11.6,11.91,17.4,3.93,5.74,7.86,11.48,11.79,17.22.13.43.28.83.44,1.25.49,1.3.68-2.74.67-2.11,0-1.34-.05-2.68-.13-4.02.02-.72-.08-1.41-.32-2.08-8.96-13.82-18.57-27.22-27.72-40.91-8.93-13.36-17.52-26.94-25.02-41.17-2.19-4.26-4.39-8.53-6.58-12.79-1.77-3.87-3.35-7.81-4.73-11.83-2.58-7.27-4.72-14.42-5.52-22.18-.46-4.49-.24-8.6.13-13.11-.14-5.04.76-9.93,2.7-14.66l1.6-4.54c.92-2.6,1.06-5.23.41-7.88-.51-1.14-1.34-1.7-2.5-1.68-.52.03-.95.26-1.3.7-.95.83-1.87,1.7-2.77,2.58-1.14,1.09-2.26,2.2-3.37,3.32-.82.74-1.54,1.56-2.16,2.47-.82,2.58-.84,5.33-1.15,8.01-1.33,11.25-2.38,22.54-3.68,33.8l.05-.43c-.37,2.79-.73,5.58-1.1,8.37l.06-.42-1.3,8.43.08-.42c-.52,2.8-1.04,5.61-1.56,8.41l.09-.42c-.62,2.77-1.24,5.55-1.87,8.32l.11-.41-2.23,8.14.13-.4-2.65,7.86.14-.4-3.1,7.48.17-.39c-3.36,6.54-6.82,12.9-11.58,18.57l-4.76,5.36c-2.6,3.15-5.19,6.31-7.76,9.49-4.86,5.97-9.43,12.13-13.99,18.32-3.77,5.11-7.56,10.16-10.9,15.57-5.5,8.91-10.63,18.45-13.54,28.57s-3.89,20.07-2.47,30.4c1.52,10.98,6.36,21.51,12.61,30.55,6.52,9.43,14.86,17.76,24.24,24.37,18.25,12.86,40.1,20.88,62.54,21.24,25.41.4,52.81-9.37,68.78-29.94,7-9.01,11.5-20.29,12.74-31.65,1.28-11.7-.09-23.19-3.14-34.51-1.89-7.03-4.74-13.81-7.67-20.45-2.7-6.14-5.15-12.37-8.04-18.43-.5-1.06-1.4,2.72-1.46,2.96-.31,1.25-.6,2.51-.82,3.78-.1.55-.3,1.24.06,1.73Z"/>
        <path class="cls-3" d="M302.25,252.93c2.66,3.59,4.86,7.45,6.59,11.57,2.07,4.37,3.95,8.81,5.65,13.34,2.43,6.59,4.4,13.49,5.51,20.43,1.4,8.67,1.88,18.23-.2,26.85-34.3,16.42-68.59,32.85-102.89,49.27-4.08-1.11-8.08-2.48-11.99-4.1-13.7-5.64-26.42-14.07-36.86-24.6-5.1-5.15-9.59-10.79-13.37-16.96-8.69-13.47-11.78-29.05-9.3-46.74.81-3.84,1.92-7.58,3.34-11.24,4.43-11.79,11.44-22.28,18.93-32.24,2.48-3.26,5.05-6.45,7.69-9.58,3.42-3.87,6.72-7.84,9.88-11.93,2.79-3.33,5.61-6.63,8.47-9.89,2.65-3.04,5.28-6.1,7.88-9.18,3.55-3.3,6.58-7.02,9.09-11.17,1.45-2.28,2.75-4.65,3.92-7.1,3.55-7.26,6.04-15.22,7.96-23.05,2.69-10.95,4.28-22.17,5.45-33.37.84-8.06,1.49-16.14,2.15-24.21.37-4.8.79-9.6,1.25-14.39-.33-3.37.29-6.48,1.85-9.34-2.25,2.66-4.51,5.33-6.76,7.99l6.96-7.61-9.25,8.91c3.94-1.56,7.89-3.12,11.83-4.67l-10.35,3.04.36,1.21-.02.37c1.05,2.68,2.09,5.36,3.14,8.04l-1.43-3.88c.89,4.16,1.79,8.32,2.68,12.48l-1.01-8.62c.49,8.95.45,17.96,1.51,26.87.48,4.02,1.28,7.91,2.35,11.82,2.92,10.69,7.09,20.9,11.98,30.82,15.54,31.62,36.83,59.99,56.37,89.17l-.25-.38c.08.29.22.55.33.82.69,1.76.68-4.6.68-3.67,0-2.35-.04-4.69-.12-7.04.03-1.23-.08-2.45-.31-3.65-2.13-4.32-7.78-11.76-8.3-12.52-5.2-7.72-10.45-15.4-15.63-23.14-7.66-11.46-14.9-23.1-21.96-34.94l.22.39c-5.06-9.06-10.59-18.04-14.54-27.64-1.94-4.72-3.53-9.52-5.05-14.39-1.17-3.73-2.47-7.49-3.39-11.29-.43-2.72-.82-5.45-1.17-8.18-.32-2.57-.71-5.13-1.17-7.68.02,2.96.04,5.92.05,8.88-.15-4.81.41-9.52,1.66-14.13,1.3-3.05,2.51-6.13,3.64-9.25.88-2.5,1.03-5.03.45-7.59-.53-1.09-1.36-1.6-2.49-1.54-.56.06-1.02.33-1.39.8-1.02.92-2.02,1.86-3,2.83-1.24,1.19-2.46,2.4-3.65,3.63-.89.81-1.67,1.71-2.36,2.69-.41,1.7-.51,3.28-.54,5.04l.04-.46c-1.66,13.72-2.93,27.49-4.85,41.17-.94,6.67-1.97,13.36-3.45,19.92l-1.88,7.87c-1.33,5.12-2.95,10.15-4.86,15.08l.18-.42c-1.08,2.48-2.16,4.95-3.24,7.43l.2-.4-3.7,6.96.22-.39c-3.26,5.09-6.58,10.01-10.58,14.57-3.47,3.96-6.74,8.09-10.03,12.2-4.8,6.01-9.27,12.19-13.79,18.41-2.46,3.4-4.94,6.77-7.25,10.28-10.27,15.6-18.98,33.56-19.31,52.6-.7,39.48,34.08,71.62,69.48,82.75,17.95,5.64,36.97,7.14,55.36,2.71,18.07-4.35,35.18-14.04,46.48-29.04,5.48-7.28,9.35-15.54,11.49-24.4,2.48-10.26,2.65-20.81,1.1-31.21-1.6-10.76-5-21.05-9.08-31.11-1.8-4.44-3.76-8.81-5.44-13.3-3.2-8.53-1.12-4.02-4.73-12.31-.44.36-.7.85-.76,1.45-.54,1.92-1.02,3.86-1.46,5.81-.47,1.94-.88,3.9-1.25,5.86-.21.57-.19,1.12.04,1.64Z"/>
      </g>
    </g>
    <g>
      <ellipse class="cls-25" cx="238.93" cy="291.62" rx="81.53" ry="41.97"/>
      <g>
        <path class="cls-16" d="M309.44,303.72l-.4,3.3.07-.34-3.48,5.47c1.25-1.19,2.5-2.39,3.74-3.58l-5.97,5.23,5.34-4.17c-2.84,2.08-5.69,4.16-8.53,6.24l5.63-3.5c-3.1,1.78-6.19,3.57-9.29,5.35l5.92-2.82c-6.94,3.66-14.2,6.25-21.77,7.77-2.82.67-5.67,1.16-8.55,1.48-6.03.92-12.02,1.57-18.11,1.82-11.29.46-22.83.05-34.01-1.72-9.66-1.53-19.16-3.82-28.27-7.41-4.45-1.75-8.81-3.76-12.94-6.19-6.93-4.09-12.2-8.92-16.76-15.92l1.24,2.37-2.36-5.1c.74,2.19,1.48,4.39,2.23,6.58l-3.15-10.12c.63,2.86,1.27,5.72,1.9,8.59-.69-4.02-1.39-8.04-2.08-12.05l.84,8.73c-.1-4.05-.2-8.11-.3-12.16-.1,2.94-.2,5.87-.29,8.81.5-3.98,1-7.96,1.5-11.95l-1.71,8.74c1.22-3.93,2.44-7.87,3.67-11.8l-3.03,8.22c1.87-3.66,3.73-7.32,5.6-10.98l-4.35,7.64c2.47-3.32,4.94-6.65,7.41-9.97-1.81,2.27-3.62,4.53-5.43,6.8,2.99-2.96,5.97-5.91,8.96-8.87-2.16,1.98-4.31,3.96-6.47,5.93,3.44-2.58,6.88-5.16,10.32-7.74l-7.2,4.97,11.43-6.58c-2.62,1.34-5.24,2.69-7.87,4.03,4.12-1.83,8.23-3.65,12.35-5.48-2.77,1.04-5.53,2.09-8.3,3.13,7.84-2.21,15.69-4.41,23.53-6.62,5.1-.94,10.23-1.6,15.4-1.98,4.2-.36,8.41-.56,12.63-.64,11.51-.23,23.04.48,34.39,2.45,9.5,1.65,18.91,4.14,27.78,7.95,3.47,1.49,6.87,3.22,10.15,5.09,6.98,4,12.28,9.02,16.81,15.95l-1.33-2.54,2.43,5.23-2.39-6.94,3.33,10.49c-.68-2.98-1.36-5.95-2.03-8.93.74,4.14,1.48,8.28,2.22,12.42l-.92-8.92c.13,4.13.26,8.25.4,12.38.08-2.95.17-5.9.25-8.85-.8,4.13-1.29,8.28-1.47,12.46-.07.27-.04.52.1.76.24.17.71-1.89.73-1.96.45-1.97.83-3.95,1.18-5.94.77-3.18.12-6.28-1.94-9.27-.29-4.26-1.88-7.86-4.76-10.81-5.6-6.32-12.69-10.74-20.4-14.04-10.65-4.56-22-7.57-33.44-9.21-12.83-1.84-25.96-2.1-38.86-.82-10.33,1.02-20.4,2.74-30.29,5.96-2.6.81-5.14,1.77-7.61,2.89-3.28,1.41-6.56,2.81-9.84,4.22-3.02,1.59-5.85,3.29-8.27,5.73-1.53,1.55-3.11,3.18-3.77,5.32s-1.04,4.68-1.42,6.93l-.29,1.81c-.14,1.04.03,2.05.52,3.02.57,2.12,1.17,4.22,1.86,6.31.51,1.55,1,3.46,1.84,4.92l2.44,3.19c1.39,1.69,2.95,3.22,4.66,4.58,7.54,6.46,16.82,10.34,26.18,13.39,10.46,3.41,21.23,5.41,32.18,6.39,12.56,1.13,25.31.52,37.78-1.14,4.99-.66,9.89-1.56,14.76-2.84,5.11-1.34,10.62-3.17,15.33-5.59,2.7-1.39,5.4-2.91,7.84-4.72s4.48-3.85,6.5-6.09c1.65-1.83,3.34-3.76,4.39-6.02s1.45-4.18,1.9-6.76c-.42.05-.78.26-1.06.62-1.1,1.01-2.18,2.05-3.22,3.11-1.06,1.05-2.1,2.12-3.11,3.23-.36.28-.57.63-.62,1.06Z"/>
        <path class="cls-16" d="M309.35,306.73c-.02,2.38-.67,4.57-1.93,6.57l.24-.49-2.2,2.58c2.24-2.08,4.48-4.17,6.73-6.25-2.82,2.49-5.63,4.98-8.45,7.47l9.33-7.48c-4.17,3.19-8.33,6.38-12.5,9.56,4.1-2.68,8.19-5.36,12.29-8.04-5.29,3.3-10.57,6.6-15.86,9.9,3.36-1.79,6.71-3.57,10.07-5.36-4.67,2.35-9.33,4.69-14,7.04,3.41-1.39,6.82-2.79,10.23-4.18-5.28,2.08-10.56,4.16-15.84,6.23l3.95-1.33c-9.53,2.87-18.18,4.88-27.76,5.88-5.2.54-10.43.86-15.67.94-11.44.18-23.12-.56-34.35-2.81-9.29-1.86-18.4-4.46-27.03-8.41-4.17-1.91-8.31-4.01-12.09-6.64-6.25-4.33-10.64-9.28-14.09-16.44l3.26,9.03-3.82-11.6c.82,3.49,1.64,6.97,2.46,10.46l-2.74-13.9,1.22,10.6c-.27-4.69-.53-9.37-.8-14.06l-.09,10.73c.4-4.63.79-9.26,1.19-13.88-.56,3.56-1.13,7.12-1.69,10.68,1.16-4.58,2.32-9.16,3.48-13.74-1.25,3.75-2.5,7.5-3.75,11.24,4.41-6.49,8.82-12.99,13.22-19.48l-8.66,9.1c3.89-3.37,7.78-6.74,11.68-10.11-3.05,2.38-6.11,4.76-9.16,7.14,4.44-2.95,8.88-5.9,13.31-8.84-3.46,2.03-6.92,4.06-10.37,6.09l14.78-7.68c-3.75,1.65-7.51,3.3-11.26,4.95,5.35-2.12,10.7-4.23,16.05-6.35-3.21,1.03-6.42,2.06-9.63,3.09,11-2.49,21.99-4.98,32.99-7.47l6.1-.55c5.45-.43,10.94-.53,16.41-.47,10.44.11,21.03.92,31.27,3.04,8.32,1.72,16.57,4.01,24.39,7.38,4.28,1.85,8.41,4.01,12.32,6.56,6.09,3.96,10.18,8.03,14.52,14.54-2.94-5.31-5.89-10.62-8.83-15.93,3.73,7.68,7.46,15.35,11.19,23.03-2.06-6.27-4.12-12.54-6.18-18.81,1.86,8.58,3.72,17.17,5.59,25.75-.52-5.94-1.03-11.88-1.55-17.82-.04,6.74,0,13.49.12,20.23-.06.37-.03.73.09,1.07.06.45.16.37.29-.25l.23-1.59c.42-3.43.52-6.92.72-10.37.12-1.89.21-3.78.28-5.66-1.92-3.98-3.84-7.96-5.76-11.94-3.53-4.44-8.35-8.1-13.19-10.97-7.92-4.7-16.59-7.86-25.48-10.19-21.06-5.5-42.93-5.79-64.29-1.8-5.16.96-10.3,2.07-15.31,3.63-8.46,2.64-16.37,6.89-23.63,11.89l3.36-1.68c-3.14,1.42-7.4,2.73-9.64,5.68-.53.77-.99,1.59-1.38,2.45-1,1.91-1.97,3.84-2.91,5.77-.47.98-1.59,2.78-1.83,3.99-.04,1.09.02,2.18.18,3.26l.34,3.12c.19,1.77.42,3.53.69,5.29.3,1.58.93,3.04,1.9,4.38,2.15,3.61,4.86,6.76,8.02,9.54,7.67,6.74,16.99,10.29,26.52,13.54,14.03,4.79,28.91,6.95,43.71,7.1,7.25.07,14.56-.34,21.75-1.22,7.61-.92,15.28-2.17,22.56-4.63,11.19-3.78,22.01-9.38,29.71-18.59,1.78-2.13,3.88-4.88,5.34-7.27.65-1.12,1.25-2.26,1.82-3.42,1.06-2.2,1.7-4.52,1.92-6.96-.66.27-1.23.69-1.69,1.26-1.9,1.81-3.77,3.65-5.62,5.51-1.86,1.85-3.7,3.73-5.5,5.63-.57.47-.99,1.03-1.26,1.7Z"/>
        <path class="cls-16" d="M308.51,302.57c-.06,4.31-2.16,7.74-6.3,10.28l4.35-3.35-7.55,5.39,4.66-2.81c-2.78,1.54-5.55,3.08-8.33,4.63l4.97-2.27c-8.06,3.45-15.01,6.07-23.39,7.6-5.86,1.06-11.81,1.84-17.76,2.31-12.19.97-24.58.58-36.7-.97-10.84-1.39-21.53-3.85-31.71-7.88-4.44-1.76-8.8-3.77-12.91-6.21-6.92-4.11-12.16-8.95-16.71-15.97l1.19,2.26-2.31-5.05c.7,2.08,1.4,4.17,2.1,6.25l-3-9.81,1.77,8.11-1.92-11.6.75,8.17c-.06-3.87-.12-7.74-.18-11.61l-.33,8.15,1.56-11.32c-.55,2.66-1.11,5.32-1.66,7.98l3.68-11.06-2.82,7.35,5.43-10.13c-1.32,2.22-2.64,4.43-3.96,6.65,2.05-2.59,4.1-5.17,6.16-7.76-1.28,1.51-2.57,3.02-3.85,4.53,2.43-2.26,4.85-4.53,7.28-6.79l-4.46,3.8c2.76-1.92,5.52-3.84,8.29-5.76l-4.81,3.06,10.33-5.53-6.41,3.05c3.65-1.48,7.3-2.96,10.95-4.44l-5.22,1.87c6.87-1.73,13.73-3.46,20.6-5.2l5.6-.86,18.92-1.53,6.54-.1c10.4,0,20.83.82,31.08,2.63,8.51,1.51,16.88,3.72,24.92,6.92,12.49,4.97,24.92,12.07,30.83,25.22-.52-1.62-1.04-3.24-1.55-4.86l2.45,8.43-1.2-6.26,1.34,9.76-.39-6.25c-.06,3.24-.13,6.48-.19,9.72l.49-6.19c-1.01,3.27-1.59,6.6-1.74,9.97l.12.25c.54.14,1.04-2.48,1.14-2.85.54-1.97.95-3.73.99-5.78s-.09-3.65-.47-5.63c-.24-1.25-.43-2.54-.93-3.71-.99-2.35-2.1-4.2-3.53-6.34-4.61-6.92-12.35-11.86-19.75-15.32-25.33-11.84-53.95-14.17-81.47-11.15-12.73,1.4-25.28,4.48-37.11,9.45-4.39,1.85-9.73,3.82-12.39,8.02-1.05,1.66-2.29,3.5-3.09,5.31-.64,1.55-1.09,3.16-1.36,4.82-.88,1.59-1.22,3.24-1.03,4.93.43,4.27,1.68,8.58,3.87,12.26,5.31,8.92,15.49,14.68,24.8,18.37,12.95,5.14,26.31,8.51,40.24,9.59,13.51,1.05,27.12.59,40.53-1.39,9.09-1.34,17.97-3.74,26.43-7.37,4.05-1.74,8.08-4.14,11.37-7.08,1.63-1.45,3.71-3.57,5.05-5.29.8-1,1.5-2.08,2.08-3.24,1.18-2.08,1.9-4.31,2.17-6.69.07-.35.04-.27-.26-.26l-.61.43c-.65.58-1.28,1.17-1.89,1.79-.95.94-1.9,1.88-2.81,2.86-.39.42-.91.87-.99,1.47Z"/>
        <path class="cls-16" d="M308.27,304.02l-.47,3.41.13-.39c-1.19,1.86-2.37,3.72-3.56,5.58,1.59-1.51,3.17-3.01,4.76-4.52l-6.82,6.01c2.25-1.79,4.5-3.58,6.75-5.36-3.31,2.49-6.62,4.97-9.93,7.46l7.14-4.59c-3.59,2.16-7.19,4.31-10.78,6.47l7.53-3.8c-8.35,4.81-17.19,7.97-26.53,9.5-3.8.9-7.63,1.54-11.51,1.94-4.04.44-8.09.75-12.15.95-12.48.62-25.11-.11-37.42-2.22-10.45-1.8-20.71-4.64-30.34-9.11-4.16-1.93-8.27-4.06-12.02-6.71l-3.91-3.03c-3.4-2.82-6.22-6.16-8.44-10.02l1.37,2.62-2.47-5.28,2.49,7.17c-1.15-3.57-2.29-7.15-3.44-10.72l2.13,9.26c-.78-4.25-1.56-8.49-2.34-12.74.33,3.1.66,6.2.99,9.3-.16-4.25-.32-8.5-.48-12.75l-.22,9.28,1.39-12.43c-.56,3.03-1.12,6.06-1.68,9.08,1.2-4.05,2.4-8.09,3.6-12.14-1,2.81-2.01,5.62-3.01,8.43,1.84-3.74,3.69-7.48,5.53-11.22-1.44,2.58-2.89,5.16-4.33,7.74l7.36-10.08-5.38,6.8,8.88-8.92c-2.13,1.96-4.26,3.91-6.39,5.87,3.41-2.57,6.82-5.14,10.22-7.7l-7.08,4.88c3.77-2.18,7.54-4.35,11.32-6.53-2.58,1.31-5.15,2.62-7.73,3.92,4.07-1.8,8.14-3.59,12.21-5.39-2.15.82-4.3,1.64-6.45,2.47,9.06-3.51,18.37-5.79,27.93-6.86,3.05-.54,6.11-.91,9.2-1.13,5.28-.45,10.58-.7,15.89-.72,11.5-.05,23.22.75,34.51,3.07,9.29,1.9,18.4,4.55,27.02,8.55,4.16,1.93,8.28,4.06,12.04,6.71l3.91,3.03c3.4,2.82,6.22,6.16,8.45,10.03l-1.49-2.86,2.56,5.42-2.77-7.87c1.24,3.8,2.48,7.61,3.72,11.41-.82-3.42-1.64-6.83-2.46-10.25l2.67,13.72c-.41-3.47-.82-6.93-1.23-10.4.24,4.61.48,9.22.72,13.83.02-3.49.05-6.99.07-10.48-.42,4.54-.84,9.08-1.26,13.62l-.04,1.05c.27.71.36-.04.51-.45.45-1.3.58-2.8.81-4.15.32-1.88.62-3.75.87-5.64,1.32-9.98-6.76-19.11-14.17-24.54-6.72-4.93-14.36-7.74-22.17-10.44-18.1-6.26-37.62-8.04-56.66-6.91-8.56.51-17.16,1.57-25.56,3.34s-17.04,5.01-24.95,8.91c2.15-.82,4.3-1.64,6.45-2.47-5.55,1.95-10.8,3.77-15.58,7.26-.9.43-1.61,1.05-2.13,1.87-.55.88-1.08,1.78-1.59,2.7-1.08,1.89-2.34,3.8-3.06,5.87l-1.41,6.86c.06.97.21,1.93.47,2.87.5,2.39.96,5.01,1.75,7.34.92,2.7,3.08,5.47,4.89,7.54,3.1,3.56,6.82,6.41,10.76,8.97,5.62,3.65,11.93,5.83,18.21,8.05,13.67,4.86,28.37,7.26,42.86,7.5,7.09.12,14.2-.07,21.26-.83,6.35-.68,12.77-1.48,18.98-2.99,10.41-2.53,20.73-6.8,29.04-13.65,3.12-2.57,5.87-5.88,8.24-9.17s3.13-6.37,3.77-10.05c-.5.12-.92.39-1.26.82-1.35,1.26-2.67,2.54-3.97,3.86-1.31,1.3-2.6,2.62-3.86,3.97-.43.34-.7.76-.82,1.26Z"/>
        <path class="cls-16" d="M307.5,301.97c.28,4.31-1.74,7.71-6.05,10.19l3.4-2.57-6.59,4.56,3.71-2.17c-8.08,4.29-14.79,6.83-23.16,8.52-8.69,1.75-17.53,2.77-26.38,3.11-11.26.43-22.75,0-33.9-1.79-9.63-1.54-19.12-3.85-28.2-7.45-4.43-1.76-8.79-3.77-12.89-6.22-6.91-4.12-12.12-8.97-16.66-16l1.15,2.18-2.27-5,2.02,6.04c-.97-3.2-1.94-6.4-2.91-9.59l1.68,7.82c-.61-3.77-1.21-7.55-1.82-11.32.23,2.61.47,5.22.7,7.84-.04-3.76-.07-7.52-.11-11.29l-.35,7.78c.53-3.65,1.07-7.3,1.6-10.95l-1.63,7.56,3.2-9.23-2.19,5.43c1.78-3.22,3.57-6.45,5.35-9.67l-3.73,6.1c2.02-2.44,4.04-4.89,6.06-7.33l-3.55,4.07,7.05-6.34-4.02,3.31,7.95-5.25-4.23,2.6,8.55-4.36-4.38,1.93c24.32-9.28,51.63-11.09,77.31-8.14,6.82.79,13.65,1.98,20.31,3.69,14.39,3.55,27.46,10.3,39.21,20.23,2.85,3,5,6.47,6.44,10.41l-.98-3.22,1.8,6.82-.59-3.28.55,5.94-.02-3.29-.53,6.76.47-3.22c-.6,2.39-1.19,4.79-1.79,7.18-.08.32-.02.53.22.6.29.08.78-1.42.7-1.22,1.23-3.07,1.83-5.96,1.62-9.26-.17-2.83-.84-5.45-2.02-8.06-2.41-5.32-6.69-9.85-11.27-13.39-7.61-5.88-16.91-10.03-26.04-12.93-22.66-7.19-47.06-8.44-70.57-5.58-10.07,1.22-19.86,3.54-29.44,6.89-3.45,1.21-6.74,2.38-9.96,4.14-2.21,1.21-4.64,2.33-6.07,4.48-.92,1.37-1.78,2.78-2.6,4.2-.42.61-.74,1.27-.98,1.96-.86,2.97-1.71,5.94-2.57,8.91,0,1.58.48,3.19.8,4.73s.61,3.17,1.21,4.64c3.35,8.12,11.12,14.29,18.63,18.39,4.93,2.69,10.57,4.79,15.87,6.61,5.94,2.04,12.13,3.58,18.31,4.71,13.46,2.45,27.42,3.02,41.05,1.92,11.31-.91,22.5-2.55,33.29-6.15,6.25-2.09,12.46-4.77,17.43-9.19,1.91-1.7,3.65-3.43,5.06-5.55.38-.54.74-1.09,1.08-1.66.97-1.84,1.46-3.81,1.49-5.89.12-.97-1.67.88-1.56.77-.77.73-1.52,1.48-2.25,2.24-.42.37-.77.81-1.03,1.3Z"/>
        <path class="cls-16" d="M308.77,305.73l-.5,3.48.2-.46-1.58,3.49.21-.46-2.2,2.58c2.03-1.89,4.07-3.79,6.1-5.68l-7.9,6.97c2.83-2.26,5.66-4.51,8.49-6.77-3.88,2.94-7.76,5.89-11.63,8.83,3.73-2.42,7.47-4.83,11.2-7.25-4.94,3.04-9.87,6.08-14.81,9.11l9.23-4.84c-4.4,2.17-8.8,4.35-13.2,6.52l9.43-3.77c-14.38,5.54-25.08,8.85-38.88,10.26-5.21.53-10.44.84-15.68.91-11.44.16-23.12-.6-34.35-2.86-9.28-1.87-18.39-4.49-27-8.45-4.17-1.92-8.29-4.03-12.05-6.66-5.85-4.09-10.39-8.87-13.56-15.54l2.7,7.82c-1.23-3.79-2.46-7.57-3.7-11.36.78,3.37,1.57,6.74,2.35,10.11-.87-4.52-1.74-9.05-2.61-13.57l1.14,10.21c-.23-4.55-.46-9.1-.69-13.66-.04,3.42-.09,6.85-.13,10.27l1.25-13.43c-.56,3.38-1.12,6.77-1.68,10.15,1.17-4.4,2.34-8.81,3.51-13.21l-3.19,9.64,5.66-12.44c-1.57,3.03-3.15,6.07-4.72,9.1,2.56-3.82,5.11-7.65,7.67-11.47l-6.05,8.24c3.17-3.46,6.33-6.91,9.5-10.37l-7.38,7.37,11.13-9.26c-2.8,2.11-5.6,4.22-8.4,6.33l12.56-8.01c-3.13,1.77-6.27,3.53-9.4,5.3,4.61-2.28,9.21-4.57,13.82-6.85-3.37,1.41-6.74,2.83-10.1,4.24,4.96-1.87,9.93-3.74,14.89-5.61l-8.55,2.6c8.24-2.92,16.67-4.89,25.29-5.93,3.11-.58,6.23-.99,9.38-1.22,5.32-.49,10.66-.76,16.01-.79,11.57-.08,23.38.73,34.74,3.07,9.33,1.92,18.49,4.59,27.13,8.62,4.17,1.94,8.27,4.11,12.02,6.79l3.92,3.06c3.4,2.84,6.21,6.21,8.42,10.1l-2.01-3.92,3.51,7.47c-1.51-4.01-3.01-8.02-4.52-12.04,1.62,4.76,3.24,9.52,4.86,14.29l-3.87-15.36c1.23,7.9,2.47,15.8,3.7,23.7-.19-5.23-.39-10.45-.58-15.68-.45,6.03-.73,12.07-.84,18.11-.07.41-.03.81.12,1.19.46.05,1.04-5.99.89-4.73l.47-4.14c.27-2.35.5-4.7.69-7.05-1.36-3.83-2.73-7.67-4.09-11.5-.43-.6-.86-1.2-1.3-1.79-8.71-11.89-23.74-17.12-37.4-20.79-17.73-4.76-36.25-5.88-54.49-4.03-12.27,1.24-24.64,3.53-36.02,8.41-4.05,1.74-7.89,3.83-11.83,5.79-1.19.4-2.25,1.01-3.19,1.82-.9.83-1.79,1.68-2.66,2.55-1.6,1.57-3.26,3.12-4.73,4.82-1.56,1.81-2.46,3.99-2.72,6.52-.91,1.97-1.64,3.99-2.17,6.07,0,1.92.79,4.33,1.21,6.11s.75,3.78,1.44,5.53c1.3,3.33,4,6.12,6.5,8.59,2.87,2.83,6.05,5.17,9.45,7.3,4.87,3.05,10.21,5.01,15.59,6.94,5.95,2.13,12,3.98,18.21,5.21,12.91,2.56,25.99,3.42,39.12,2.73,12.12-.64,24.39-2.27,35.91-6.23,5.3-1.82,10.77-4.28,15.5-7.32,3.91-2.5,8.05-5.82,11.05-9.4,2.56-3.06,5.2-6.26,6.9-9.88,1.19-2.54,1.6-4.57,2.08-7.3-.61.22-1.13.59-1.56,1.12-1.73,1.64-3.43,3.3-5.1,4.99-1.69,1.67-3.35,3.38-4.98,5.1-.52.42-.9.94-1.12,1.56Z"/>
        <path class="cls-16" d="M307.15,301.6c-1.22,2.68-2.44,5.35-3.66,8.03l1.55-1.5c-6.32,3.17-12.63,6.34-18.95,9.5-3.46.74-6.92,1.48-10.38,2.22-4.55.86-9.15,1.37-13.75,1.79-6.45.59-12.62.55-19.14.47-4.56.19-9.1.04-13.62-.44-3.48-.26-6.95-.66-10.41-1.2-8.59-1.38-17.12-3.33-25.3-6.32-13.37-4.89-27.16-12.33-33.44-26.19l1.73,5.21c-.86-2.92-1.73-5.84-2.59-8.76.47,2.26.94,4.53,1.41,6.79-.51-3.43-1.02-6.87-1.54-10.3l.53,6.83.07-10.27-.41,6.78c.55-3.3,1.1-6.61,1.66-9.91l-1.59,6.62,3.24-8.52-2.02,4.68,4.54-7.67c-.9,1.35-1.8,2.71-2.7,4.06l9.44-8.85c-1.14.89-2.29,1.78-3.43,2.66,3.98-2.1,7.96-4.2,11.94-6.3l-3.53,1.46c15.87-5.54,32.29-7.87,48.95-8.2,11.44-.22,23.1.37,34.4,2.33,9.67,1.67,19.19,4.11,28.27,7.85,13.5,5.56,27.52,14.09,31.12,29.84l-.21-1.57c-.66,3.81-1.32,7.63-1.98,11.44-.1.29-.42.89-.12,1.15s.54-.16.64-.38c1.57-3.56,3-7.36,2.32-11.34-.47-2.78-1.28-5.38-2.56-7.91-2.8-5.54-7.88-10.25-12.81-13.81-9.95-7.18-21.78-11.43-33.57-14.44-15.81-4.04-32.57-5.09-48.85-4.41-11.74.49-23.53,2.06-34.88,5.09-7.49,2-15.8,4.34-21.9,9.45-2.12,1.78-2.8,2.48-3.75,4.57-.51,1.15-.99,2.31-1.45,3.49-.62,1.51-1,3.08-1.15,4.73-.54,1.37-.77,2.76-.69,4.18.17,1.14.38,2.28.62,3.41.28,1.35.51,2.75,1.05,4.03,3.09,7.35,9.14,12.79,15.76,16.98,5.44,3.44,11.6,5.94,17.68,8.04,5.86,2.02,11.83,3.62,17.92,4.79,14.15,2.72,28.71,3.25,43.07,2.18,8.37-.62,16.59-1.73,24.78-3.62,6.35-1.47,12.75-3.22,18.58-6.2,2.59-1.32,4.83-2.92,6.93-4.92.99-.94,1.79-2.05,2.55-3.19,1.49-2.25,1.65-3.78,2.07-6.35.11-.67-.95.17-.94.16-.45.35-1.41,1.12-1.48,1.75Z"/>
        <path class="cls-16" d="M308.4,302.35c.26,4.33-1.77,7.74-6.11,10.22l3.19-2.4-6.4,4.4,3.45-2c-6.8,2.6-13.6,5.2-20.41,7.79-2.58.56-5.18,1.05-7.79,1.47-3.91.74-7.86,1.16-11.85,1.28-4.11.58-8.24.87-12.39.89-11.39.24-22.8-.49-34.03-2.46-9.44-1.66-18.8-4.15-27.61-7.98-3.45-1.5-6.83-3.22-10.09-5.1-6.94-4.02-12.16-9.04-16.64-15.98l1.11,2.1-2.24-4.93c.65,1.95,1.3,3.91,1.94,5.86-.94-3.14-1.88-6.27-2.82-9.41l1.62,7.65c-.59-3.71-1.17-7.43-1.76-11.14l.66,7.75c-.02-3.73-.05-7.46-.07-11.19l-.37,7.77c.54-3.64,1.08-7.29,1.62-10.93-.55,2.55-1.11,5.1-1.66,7.64,1.23-3.57,2.47-7.14,3.7-10.71-.92,2.35-1.84,4.7-2.76,7.05l4.67-8.46-3.12,5.03c2.04-2.51,4.08-5.02,6.12-7.53l-3.75,4.35c2.4-2.2,4.81-4.4,7.21-6.59l-4.33,3.64c2.73-1.86,5.46-3.72,8.19-5.58l-4.65,2.93c3.38-1.78,6.75-3.56,10.13-5.33l-6.14,2.9c3.57-1.42,7.14-2.85,10.7-4.27l-4.97,1.77c8.51-2.78,17.17-4.74,26.01-5.88,10.71-1.36,21.43-1.84,32.17-1.44,9.31.35,18.61,1.32,27.74,3.18,8.32,1.7,16.54,4.1,24.33,7.51,3.48,1.52,6.86,3.24,10.13,5.18,8.52,4.4,14.47,10.84,17.87,19.31l-1.15-3.73,2.01,7.34-.81-4.73c.29,2.76.58,5.52.88,8.28l-.18-4.65-.42,7.22.47-3.57c-1.13,2.64-1.73,5.35-1.79,8.14l.13.2c.4.13.74-1.15.82-1.37.3-.85.57-1.71.82-2.58l.69-7.04c-.09-1.42-.35-2.88-.69-4.25-1.26-5.06-4.46-9.37-8.04-13.02-2.37-2.42-4.96-4.5-7.75-6.43-4.75-3.27-9.99-5.6-15.31-7.79-13.37-5.5-27.92-8.43-42.33-9.3-13.4-.81-27.2-.52-40.46,1.76-9.8,1.69-19.5,4.34-28.73,8.06-2.68,1.08-5.36,2.17-7.8,3.76-3.14,2.04-6.7,4.63-8.26,8.16-.62,1.39-.88,3.08-1.2,4.54s-.71,3.07-.79,4.63c-.07,1.33,0,2.15.25,3.5.36,1.95.7,4.17,1.35,6.06,2.34,6.83,8.49,12.3,14.31,16.23,4.55,3.08,9.51,5.2,14.59,7.22,5.64,2.24,11.38,4.03,17.27,5.47,13.23,3.23,27.01,4.1,40.58,3.77,11.77-.29,23.62-1.73,35-4.74,8.05-2.13,16.37-4.91,22.78-10.43,1.97-1.7,3.73-3.45,5.19-5.59.41-.53.78-1.09,1.11-1.67.99-1.86,1.51-3.84,1.56-5.95.13-.96-1.64.85-1.52.74-.75.71-1.47,1.43-2.18,2.18-.41.36-.74.78-1,1.26Z"/>
        <path class="cls-16" d="M307.99,303.28l-.39,3.3.08-.34-3.47,5.47c1.3-1.25,2.61-2.49,3.91-3.74-2.04,1.78-4.07,3.57-6.11,5.35l5.61-4.4c-2.93,2.16-5.87,4.32-8.8,6.48l5.98-3.75c-3.21,1.86-6.42,3.73-9.64,5.59l6.35-3.08c-6.53,2.49-13.07,4.99-19.6,7.48-6.63,1.62-13.33,2.7-20.1,3.26-4.14.39-8.27.62-12.43.72-11.43.29-22.88-.41-34.15-2.36-9.47-1.64-18.85-4.12-27.69-7.93-3.47-1.49-6.86-3.21-10.14-5.09-6.97-4-12.25-9.02-16.77-15.95l1.29,2.46c-.8-1.73-1.6-3.45-2.4-5.18l2.32,6.76c-1.08-3.44-2.16-6.88-3.24-10.32.66,2.91,1.31,5.82,1.97,8.73-.72-4.07-1.43-8.15-2.15-12.22l.88,8.76c-.11-4.07-.23-8.14-.34-12.21l-.27,8.72c.49-3.96.99-7.92,1.48-11.88l-1.67,8.51c1.21-3.86,2.43-7.73,3.64-11.59l-2.9,7.84c1.82-3.54,3.64-7.08,5.47-10.63l-4.11,7.11,6.2-8.13c-1.34,1.62-2.68,3.23-4.03,4.85,2.85-2.75,5.7-5.51,8.55-8.26l-5.87,5.21c2.82-2.03,5.64-4.06,8.47-6.09l-5.11,3.33c3.55-1.96,7.11-3.93,10.66-5.89l-6.87,3.34c3.79-1.59,7.59-3.18,11.38-4.77l-5.65,2.07c7-1.83,13.99-3.66,20.99-5.49,5.06-.91,10.15-1.55,15.27-1.91,4.2-.35,8.41-.54,12.63-.61,11.51-.21,23.03.52,34.38,2.51,9.49,1.66,18.89,4.16,27.75,7.98,3.47,1.5,6.87,3.22,10.15,5.1,6.98,4,12.25,9.02,16.77,15.96l-1.18-2.26,2.32,5.03-2.1-6.25c1,3.27,2.01,6.54,3.01,9.81l-1.76-8.13c.64,3.86,1.29,7.73,1.93,11.59l-.74-8.21c.06,3.88.13,7.77.19,11.65.12-2.75.23-5.49.35-8.24-.85,3.9-1.38,7.83-1.57,11.79-.07.26-.04.5.1.72.44.09,1.07-3.25.94-2.67.48-2.08,1.21-4.33,1.29-6.46.06-1.71-.32-3.41-.67-5.07-.39-1.88-.71-3.82-1.36-5.63-.91-2.55-2.7-4.89-4.38-6.99-6.39-8.02-15.96-12.65-25.3-16.23-24.16-9.26-50.35-10.83-75.87-7.65-8.87,1.11-17.39,3.07-25.87,5.89-2.41.87-4.79,1.79-7.16,2.77-2.32.9-4.62,1.87-6.88,2.91-1.89.88-3.65,1.95-5.29,3.21-.88.42-1.59,1.01-2.12,1.79-1.25,1.75-2.3,3.72-3.32,5.61-1.14,2.1-1.39,3.51-2.01,6.09-.78,1.53-1.06,3.11-.84,4.72.18,1.04.39,2.07.62,3.1.41,1.88.75,3.8,1.34,5.63.89,2.78,2.89,5.28,4.72,7.52,2.88,3.53,6.75,6.56,10.55,9.01,4.75,3.07,9.87,5.17,15.16,7.12,5.82,2.15,11.69,4.06,17.77,5.36,12.57,2.68,25.33,3.7,38.17,3.29,11.67-.38,23.5-1.65,34.77-4.82,5.12-1.44,10.41-3.38,15.14-5.84,3.91-2.03,8.07-4.66,11.17-7.84,2.58-2.64,5.43-5.55,6.97-8.94,1.06-2.33,1.4-4.12,1.82-6.68-.43.06-.79.27-1.08.64-1.13,1.03-2.23,2.1-3.3,3.19-1.09,1.07-2.15,2.17-3.19,3.3-.37.29-.58.65-.64,1.08Z"/>
      </g>
    </g>
    <g>
      <circle class="cls-19" cx="241.51" cy="289.18" r="24.54"/>
      <g>
        <path class="cls-16" d="M255.04,301.28l-.3,3.14.07-.34-2.82,5.05,3.68-3.69-5.38,4.95c2.22-1.81,4.44-3.63,6.66-5.44-3.05,2.32-6.11,4.64-9.16,6.96,2.35-1.53,4.71-3.06,7.06-4.59-3.29,1.89-6.58,3.78-9.87,5.67l7.46-3.68-10.42,4.25,7.7-2.58c-3.61.9-7.22,1.79-10.84,2.69,2.64-.48,5.28-.97,7.92-1.45-3.7.35-7.39.69-11.09,1.04l7.87-.31-11.11-.6c2.6.28,5.19.56,7.79.85-3.61-.73-7.22-1.45-10.83-2.18,2.53.7,5.06,1.4,7.6,2.1l-10.59-4.06,7.06,3.11c-3.25-1.84-6.5-3.68-9.74-5.52,2.16,1.37,4.33,2.74,6.49,4.11-2.88-2.27-5.76-4.55-8.63-6.82,1.93,1.66,3.86,3.31,5.79,4.97l-7.57-8.01c1.69,1.93,3.37,3.87,5.06,5.8l-6.35-8.99c1.39,2.15,2.78,4.31,4.17,6.46-1.68-3.29-3.37-6.58-5.05-9.87,1.09,2.36,2.18,4.72,3.26,7.09-1.22-3.51-2.44-7.02-3.66-10.52.75,2.5,1.5,5,2.25,7.5-.73-3.69-1.46-7.38-2.19-11.07l1.22,7.88c-.22-3.78-.44-7.57-.66-11.35l.12,8.02c.31-3.84.62-7.68.93-11.52l-.99,8.11,2.43-11.34c-.76,2.69-1.52,5.38-2.29,8.07,1.44-3.74,2.88-7.47,4.31-11.21l-3.38,7.67,5.86-10.46-4.48,7.21c2.41-3.14,4.82-6.29,7.23-9.43l-5.46,6.54c2.84-2.79,5.69-5.58,8.53-8.38l-6.41,5.82c3.21-2.39,6.41-4.78,9.62-7.16-2.39,1.63-4.79,3.25-7.18,4.88l10.59-5.8-7.9,3.89c3.78-1.44,7.56-2.89,11.34-4.33-2.79.92-5.57,1.84-8.36,2.77,3.97-.91,7.93-1.83,11.9-2.74-2.92.54-5.84,1.07-8.76,1.61,4.08-.36,8.16-.73,12.24-1.09l-8.87.39c4.12.21,8.24.41,12.35.62l-8.9-.85c4.05.75,8.09,1.51,12.14,2.26-2.92-.75-5.85-1.49-8.77-2.24,3.97,1.41,7.94,2.82,11.92,4.23l-8.24-3.4c3.68,1.94,7.36,3.88,11.04,5.83l-7.65-4.54,9.89,7.28c-2.28-1.84-4.56-3.67-6.84-5.51,2.9,2.85,5.8,5.7,8.7,8.55-1.99-2.14-3.99-4.28-5.98-6.43,2.45,3.21,4.9,6.42,7.35,9.63-1.65-2.37-3.29-4.74-4.94-7.11,1.97,3.5,3.93,7.01,5.9,10.51l-3.86-7.73,4.31,11.18c-.9-2.69-1.79-5.37-2.69-8.06.9,3.87,1.8,7.74,2.69,11.61-.5-2.77-1-5.55-1.5-8.32.33,3.94.66,7.87.99,11.81-.1-2.76-.21-5.52-.31-8.28-.23,3.93-.45,7.86-.68,11.8l.88-8.19c-1.14,4.04-1.92,8.12-2.36,12.27.02.38.14.42.35.1.37-.76.66-1.55.84-2.38.45-1.55.88-3.11,1.27-4.68.9-3.43,1.2-6.95.88-10.55-.44-2.38-1.17-4.66-2.2-6.85-.92-1.47-2.25-2.72-3.43-3.99-2.15-2.3-4.34-4.55-6.58-6.76-.84-.38-1.72-.67-2.63-.87-1.71-.47-3.43-.9-5.16-1.32-2.08-.48-4.17-.9-6.28-1.26-4.69-.13-9.78,1.77-13.63,4.32-4.66,3.08-8.1,7.96-9.84,13.27-1.34,4.08-1.76,8.29-1.08,12.55.51,3.18,1.41,6.25,3.47,8.74.97,1.16,1.96,2.29,2.97,3.41,1.69,1.82,3.43,3.59,5.21,5.33,1.73.89,3.75,1.26,5.62,1.76,4.38,1.17,8.43,1.74,13.19-.27,2.27-.96,4.39-2.56,6.41-3.94,2.46-1.69,4.45-4.03,6.12-6.51,1.96-2.91,2.61-5.72,3.16-9.07-.42.05-.78.26-1.06.62-1.1,1.01-2.18,2.05-3.22,3.11-1.06,1.05-2.1,2.12-3.11,3.23-.36.28-.57.63-.62,1.06Z"/>
        <path class="cls-16" d="M254.94,304.29c0,2.22-.53,4.3-1.57,6.25l.24-.49-1.81,2.35c2.21-2.14,4.43-4.27,6.64-6.41-2.62,2.41-5.23,4.82-7.85,7.24l11.63-9.73c-6.03,4.37-12.05,8.74-18.08,13.11,4.6-2.66,9.19-5.31,13.79-7.97-5.15,2.57-10.3,5.13-15.44,7.7l12.85-5.41c-5.29,1.86-10.58,3.71-15.87,5.57,4.36-1.23,8.72-2.47,13.08-3.7l-16.13,3.37c4.3-.62,8.6-1.24,12.89-1.86l-16.02,1.09c4.23-.02,8.46-.04,12.7-.05-5.23-.39-10.46-.78-15.69-1.17,4.06.6,8.12,1.2,12.18,1.8-5.04-1.18-10.08-2.36-15.13-3.54,3.76,1.14,7.51,2.27,11.27,3.41l-13.96-5.55c3.46,1.65,6.92,3.3,10.38,4.95-4.19-2.49-8.38-4.98-12.58-7.47l9.17,6.19-11.07-9.02c2.67,2.46,5.34,4.92,8.01,7.39-3.14-3.47-6.28-6.95-9.43-10.42l6.63,8.24c-2.57-3.84-5.13-7.67-7.7-11.51l5.29,9.07c-1.95-4.14-3.9-8.27-5.85-12.41,1.28,3.19,2.57,6.37,3.85,9.56-1.33-4.35-2.66-8.7-3.99-13.05l2.41,10.04-2.04-13.46c.32,3.4.63,6.8.95,10.2l-.09-13.69-.53,10.34c.61-4.53,1.22-9.06,1.82-13.6-.71,3.43-1.43,6.86-2.14,10.3l3.97-13.43c-1.2,3.3-2.4,6.61-3.6,9.91,1.97-4.25,3.94-8.5,5.91-12.75-1.69,3.17-3.39,6.34-5.08,9.52,2.56-3.93,5.12-7.87,7.68-11.8l-6.46,8.83c3.14-3.59,6.29-7.17,9.43-10.76-2.62,2.71-5.23,5.41-7.85,8.12,3.64-3.19,7.29-6.38,10.93-9.57-3.02,2.37-6.05,4.74-9.07,7.1,4.14-2.71,8.28-5.42,12.43-8.13-3.44,2.02-6.87,4.03-10.31,6.05,4.56-2.2,9.12-4.4,13.67-6.61-3.76,1.57-7.52,3.13-11.28,4.7,4.94-1.59,9.88-3.18,14.81-4.78-4.08,1.1-8.17,2.2-12.25,3.3,5.24-.97,10.47-1.94,15.71-2.92l-12.87,1.66c5.46-.25,10.92-.49,16.38-.74l-13.46-.05,16.71,1.42c-4.57-.67-9.15-1.34-13.72-2.01,5.64,1.3,11.29,2.59,16.93,3.89-4.52-1.32-9.03-2.65-13.55-3.97,5.47,2.12,10.95,4.23,16.42,6.35-4.86-2.22-9.73-4.44-14.59-6.67,6.64,4.38,13.28,8.76,19.92,13.14-4.27-3.52-8.54-7.03-12.81-10.55,4.32,4.25,8.63,8.5,12.95,12.76-3.38-3.75-6.76-7.5-10.13-11.25,3.69,4.84,7.38,9.69,11.07,14.53-2.88-4.26-5.76-8.51-8.64-12.77,3.05,5.37,6.1,10.75,9.15,16.12-2.26-4.6-4.52-9.21-6.77-13.81,2.27,5.75,4.54,11.51,6.82,17.26-1.62-4.93-3.24-9.86-4.87-14.79,1.48,6.07,2.96,12.13,4.43,18.2-.92-5.06-1.84-10.13-2.76-15.19.61,6.2,1.23,12.4,1.84,18.6-.21-5.17-.41-10.34-.62-15.51-.4,6.76-.67,13.52-.81,20.28l.13.53c.46.05.86-4.74.92-5.17.49-4.04,1.05-8.15,1.22-12.22.16-5.59-1.48-10.04-4.92-13.35-2.83-1.61-5.75-3.03-8.78-4.26-6.39-3.02-5.75-4.26-10.48-3.1-3.26.8-6.51,1.67-9.73,2.62-1.81.53-3.86.65-5.28,1.93-.65.67-1.23,1.4-1.75,2.18-2.15,2.89-4.28,5.79-6.39,8.71-.29.39-.41.84-.38,1.36-.15,1.72-.27,3.44-.35,5.17-.1,1.72-.16,3.45-.18,5.18-.09.51,0,.97.24,1.39,9.64,6.51,19.28,13.02,28.91,19.53.66-.12,1.26-.41,1.79-.87,2.06-1.36,4.1-2.75,6.12-4.18,2.03-1.41,4.04-2.84,6.02-4.31.61-.34,1.09-.8,1.43-1.38,1.56-2.3,3.24-4.47,4.47-6.96,1.32-2.67,2.01-5.28,2.52-8.23-.66.27-1.23.69-1.69,1.26-1.9,1.81-3.77,3.65-5.62,5.51-1.86,1.85-3.7,3.73-5.5,5.63-.57.47-.99,1.03-1.26,1.7Z"/>
        <path class="cls-16" d="M254.1,300.13c.06,3.78-1.61,6.89-5.01,9.33l4.26-3.51-6.76,5.01c1.95-1.22,3.9-2.44,5.84-3.67-2.88,1.57-5.76,3.14-8.65,4.71l6.27-2.9c-3.08,1.15-6.17,2.29-9.25,3.44,2.19-.67,4.38-1.33,6.57-2l-9.72,2.05,6.84-1.04c-3.34.19-6.68.39-10.03.58l6.9-.06c-3.38-.31-6.76-.61-10.13-.92l6.91.94c-3.31-.78-6.62-1.55-9.93-2.33,2.28.7,4.55,1.4,6.83,2.09l-8.47-3.55,5.07,2.45c-2.61-1.58-5.21-3.16-7.82-4.74l4.7,3.18-6.91-5.76c1.4,1.27,2.8,2.54,4.2,3.82l-6.05-6.73,3.67,4.43-5.09-7.52,3.02,4.92-4.02-8.23,2.34,5.37-2.88-8.75,1.57,5.65c-.55-3.05-1.11-6.1-1.66-9.15l.79,5.88-.39-9.35-.03,5.91.91-9.41-.85,5.89c.82-3.55,1.64-7.09,2.46-10.64l-2.18,7.29c1.43-3.48,2.86-6.97,4.29-10.45l-3.12,6.79,5.66-9.6-4.04,6.23c1.97-2.42,3.94-4.84,5.9-7.26l-3.86,4.33,6.81-6.3-4.42,3.71,7.58-5.22c-1.6,1-3.21,1.99-4.81,2.99,2.72-1.36,5.45-2.73,8.17-4.09l-5.16,2.25,8.62-2.84-5.31,1.47,10.28-1.87-6.81.93c2.99-.1,5.97-.19,8.96-.29l-5.33-.08c2.97.32,5.94.63,8.9.95l-5.19-.84c3.26.81,6.51,1.61,9.77,2.42l-6.31-2.04c2.77,1.22,5.54,2.44,8.31,3.65l-4.55-2.28,7.53,4.68-4.06-2.87,6.41,5.58-3.51-3.33,5.49,6.35-2.94-3.76c1.47,2.33,2.94,4.65,4.41,6.98l-2.32-4.06,3.39,7.49-1.69-4.32,2.21,7.81-1.05-4.45,1.12,8.06-.39-4.54-.07,8.07.24-4.51-1.2,8.07.88-4.42-2.49,8.79c-.14.26-.14.49-.02.71.23.22.23-.06.45-.25.62-.55.94-2.18,1.22-2.97.44-1.22,1.01-2.43,1.4-3.66,1.69-5.33.94-11.41-1.03-16.53-2.11-5.46-5.94-9.7-10.95-12.69-8.19-4.88-19.82-4.45-27.64.86-2.08,1.41-3.99,3.05-5.58,5-1.12,1.38-2.23,2.92-2.81,4.61-.56,1.61-1.09,3.23-1.58,4.86-1,1.89-1.47,3.87-1.43,5.95-.16,3.03.11,6.03.96,8.95,1.38,4.74,4.11,9.15,7.97,12.25,1,.81,2.18,1.75,3.37,2.27,1.08.47,2.27.77,3.39,1.12,3.38,1.06,4.38,1.94,7.04,1.65,1.58-.17,3.17-.4,4.73-.69,2.42-.45,4.88-1.47,6.86-2.92,1.82-1.34,3.83-2.75,5.3-4.47.65-.76,1.34-1.5,1.92-2.32,1.92-2.7,2.72-5.71,3.39-8.89.07-.35.04-.27-.26-.26l-.61.43c-.65.58-1.28,1.17-1.89,1.79-.95.94-1.9,1.88-2.81,2.86-.38.41-.92.88-.99,1.47Z"/>
        <path class="cls-16" d="M253.86,301.58l-.37,3.25.13-.39c-.48,2-1.44,3.72-2.9,5.16,1.56-1.54,3.12-3.09,4.68-4.63l-6.22,5.75,8.39-6.98c-3.63,2.84-7.26,5.67-10.89,8.51,2.97-2.01,5.94-4.02,8.91-6.03-3.9,2.37-7.81,4.74-11.71,7.11l9.43-5c-4.13,1.87-8.25,3.73-12.38,5.6,3.26-1.23,6.53-2.46,9.79-3.69-4.3,1.27-8.6,2.55-12.9,3.82,3.37-.78,6.74-1.57,10.11-2.35-4.42.66-8.85,1.32-13.27,1.98l10.11-.91c-4.44.02-8.88.03-13.32.05,3.35.18,6.7.35,10.05.53l-13.09-1.84c3.26.69,6.52,1.39,9.78,2.08l-12.78-3.97c3.04,1.13,6.07,2.26,9.11,3.39-3.93-1.9-7.86-3.8-11.79-5.7,2.8,1.55,5.6,3.1,8.4,4.65-3.53-2.44-7.05-4.88-10.58-7.32,2.49,1.9,4.97,3.8,7.46,5.7-3.09-2.89-6.18-5.78-9.27-8.67,2.16,2.23,4.33,4.46,6.49,6.7l-7.82-9.84,5.33,7.4c-2.09-3.58-4.18-7.17-6.27-10.75l4.17,8.06c-1.53-3.82-3.07-7.64-4.6-11.46.97,2.8,1.94,5.6,2.91,8.4l-2.92-11.94,1.66,8.71c-.39-4.06-.77-8.11-1.16-12.17l.41,8.71c.19-4.07.38-8.14.57-12.21-.28,2.89-.56,5.78-.84,8.67l2.23-11.91-2.21,8.48,4.19-11.63c-1.11,2.64-2.22,5.29-3.34,7.93,1.92-3.59,3.84-7.17,5.75-10.76-1.48,2.45-2.96,4.9-4.44,7.34,2.39-3.2,4.78-6.4,7.16-9.59l-5.4,6.57c2.81-2.82,5.63-5.64,8.44-8.46l-6.33,5.78c3.17-2.39,6.34-4.77,9.51-7.16l-7.06,4.8c3.49-1.93,6.98-3.85,10.47-5.78-2.59,1.27-5.17,2.54-7.76,3.8,3.73-1.42,7.46-2.85,11.19-4.27-2.74.89-5.47,1.79-8.21,2.68,3.92-.9,7.85-1.8,11.77-2.7-2.88.51-5.75,1.03-8.63,1.54,4.03-.35,8.07-.7,12.1-1.05-2.92.11-5.85.22-8.77.34,4.1.22,8.19.44,12.29.66-2.96-.3-5.92-.6-8.88-.89,4.04.76,8.08,1.52,12.12,2.29l-8.83-2.29,11.98,4.26-8.4-3.5c3.74,1.97,7.48,3.95,11.22,5.92-2.64-1.57-5.29-3.14-7.93-4.71l10.17,7.41-7.21-5.79,9.06,8.81-6.44-6.84,7.81,10-5.44-7.69c2.13,3.69,4.26,7.38,6.39,11.07-1.47-2.84-2.93-5.67-4.4-8.51,1.62,3.97,3.24,7.95,4.86,11.92-1.06-3.02-2.12-6.03-3.19-9.05l3.19,12.57c-.65-3.18-1.3-6.36-1.94-9.54l1.47,13-.62-9.71c-.12,4.4-.24,8.79-.36,13.19l.74-9.82c-1.03,4.64-1.77,9.32-2.22,14.04l.1.36c.44.1,1.04-2.9,1.12-3.21.66-2.56,1.19-5.15,1.73-7.74.31-1.11.56-2.22.76-3.35l-.38-3.53c-.55-3.58-2.08-6.96-4.02-10-.73-1.39-1.71-2.54-2.95-3.43l-8.58-5.65c-1.69-.51-3.55-.56-5.3-.75-1.48-.16-2.96-.28-4.45-.37-1.75-.68-3.43-.74-5.03-.17-1.9.53-3.71,1.65-5.46,2.53-.91.45-1.82.91-2.71,1.41-1.78,1.17-3.35,2.59-4.72,4.26-2.84,2.66-4,2.79-4.86,5.68-.66,2.22-1.25,4.47-1.76,6.74-.43,1.86-.77,3.73-1,5.63,0,1.79.26,3.54.77,5.24.59,2.39,1.22,4.64,2.89,6.48s3.38,3.6,5.15,5.32c5.41,5.24,14.8,3.86,21.57,5.17.5-.02.95-.2,1.36-.54,1.08-.67,2.14-1.36,3.19-2.07,1.32-.87,2.63-1.76,3.93-2.67.93-.59,1.81-1.25,2.62-2,1.87-2.49,4.14-4.99,5.34-7.91.9-2.2,1.29-4.07,1.68-6.44-.5.12-.92.39-1.26.82-1.35,1.26-2.67,2.54-3.97,3.86-1.31,1.3-2.6,2.62-3.86,3.97-.43.34-.7.76-.82,1.26Z"/>
        <path class="cls-16" d="M253.09,299.53c.38,3.78-1.21,6.86-4.76,9.26l3.32-2.7-5.81,4.15,4.66-2.79c-2.48,1.26-4.96,2.52-7.45,3.78,1.7-.72,3.39-1.45,5.09-2.17l-8.06,2.66c1.8-.48,3.61-.97,5.41-1.45l-7.38,1.24,4.55-.47-7.67.11,4.65.18c-2.61-.35-5.22-.7-7.83-1.06l4.71.85c-2.98-.81-5.96-1.61-8.94-2.42l5.99,2.03c-2.58-1.19-5.16-2.38-7.74-3.57,1.5.78,3,1.55,4.5,2.33l-7.18-4.69,4.21,2.99-6.37-5.61,3.81,3.6c-1.86-2.18-3.73-4.37-5.59-6.55l3.36,4.19-4.73-7.3,2.77,4.67c-1.24-2.66-2.48-5.33-3.72-7.99.72,1.7,1.43,3.41,2.15,5.11l-2.65-8.51c.48,1.79.96,3.58,1.44,5.38l-1.48-8.88.7,5.58c-.09-3.03-.17-6.05-.26-9.08l-.07,5.6,1-9.1-.85,5.55c.83-3.41,1.66-6.81,2.49-10.22l-2.12,6.83c1.24-2.89,2.48-5.78,3.72-8.68l-2.41,4.96,4.8-7.89-3.05,4.47,5.77-6.81-3.53,3.87,6.55-5.84-3.98,3.23c2.41-1.57,4.82-3.15,7.23-4.72l-4.24,2.53c2.56-1.21,5.12-2.41,7.68-3.62l-4.45,1.81c2.67-.78,5.34-1.57,8.01-2.35l-4.46,1.11c2.71-.4,5.42-.81,8.13-1.21l-4.42.41,8.07.08-4.23-.2c2.63.39,5.27.78,7.9,1.17l-3.97-.81,8.28,2.43-4.74-1.77c2.37,1.22,4.74,2.44,7.12,3.66l-3.28-1.83c2.1,1.48,4.21,2.96,6.31,4.44l-2.78-2.18c2.34,2.77,4.68,5.54,7.03,8.3l-1.84-2.65c1.37,3.21,2.75,6.42,4.12,9.63l-.92-2.89c-.69,6.81-1.38,13.61-2.07,20.42,0-.02-.56,1.21-.19,1.37s.85-1.05.87-1.08c2.06-4.38,3.4-8.72,3.47-13.6.08-5.57-1.97-11.19-5.28-15.61-1.15-1.54-1.28-1.71-2.77-3.08-1.82-1.68-2.74-2.13-5.02-3.45-2.77-1.59-3.18-1.98-6.36-2.77-1.2-.3-2.43-.56-3.65-.73-4.91-.68-10.25.31-14.7,2.42-4.91,2.32-9.85,6.57-11.69,11.83l-2.76,8.39-.23,3.66c.01,2.38.35,4.85.99,7.14.99,3.53,2.8,7.33,5.38,9.98,1.83,1.87,3.84,3.96,6.33,4.93,1.07.42,2.15.79,3.25,1.14,1.74.57,3.69,1.4,5.5,1.62,4.03.48,8.37-.78,11.81-2.84,2.6-1.56,4.77-3.31,6.54-5.96.53-.8,1.11-1.68,1.53-2.55.9-1.87,1.1-3.66,1.33-5.72.11-.96-1.66.86-1.56.77-.77.73-1.52,1.48-2.25,2.24-.42.37-.77.81-1.03,1.3Z"/>
        <path class="cls-16" d="M254.37,303.29c.02,2.19-.49,4.25-1.51,6.18l.2-.46-1.81,2.35,6.02-5.83-7.31,6.73c3.53-2.94,7.06-5.88,10.59-8.82-5.64,4.04-11.27,8.07-16.91,12.11,4.21-2.39,8.43-4.78,12.64-7.17-4.81,2.33-9.63,4.66-14.44,6.99l11.85-4.84c-4.97,1.66-9.94,3.32-14.91,4.98,4.04-1.09,8.09-2.17,12.13-3.26-5.07.97-10.15,1.94-15.22,2.91,4.01-.52,8.01-1.03,12.02-1.55-5.06.25-10.12.5-15.18.75,3.96.05,7.92.09,11.88.14l-14.89-1.39c3.82.63,7.63,1.26,11.45,1.89l-14.4-3.68c3.54,1.14,7.08,2.27,10.62,3.41-4.43-1.87-8.87-3.74-13.3-5.61l9.8,4.87c-4-2.48-7.99-4.96-11.99-7.44,2.89,2.02,5.79,4.03,8.68,6.05-3.51-2.98-7.03-5.95-10.54-8.93,2.53,2.4,5.05,4.79,7.58,7.19-2.99-3.42-5.98-6.84-8.97-10.26,2.09,2.67,4.18,5.33,6.27,8l-7.29-11.29c1.66,2.93,3.32,5.85,4.99,8.78-1.83-4.05-3.67-8.09-5.5-12.14,1.2,3.07,2.4,6.15,3.59,9.22-1.23-4.24-2.46-8.48-3.69-12.72l2.21,9.64c-.6-4.36-1.2-8.72-1.8-13.08l.81,9.74.09-13.24-.6,9.82,1.93-13.08-2.14,9.71c1.34-4.28,2.68-8.56,4.01-12.84-1.16,3.09-2.33,6.17-3.49,9.26,1.94-4.03,3.89-8.05,5.83-12.08-1.62,2.93-3.23,5.85-4.85,8.78l7.49-11.05-6.08,8.05c3.02-3.32,6.04-6.64,9.06-9.96l-7.3,7.29c3.47-2.9,6.94-5.81,10.41-8.71-2.78,2.09-5.56,4.18-8.34,6.28,3.9-2.43,7.8-4.85,11.69-7.28-3.12,1.74-6.25,3.48-9.37,5.23l12.74-5.76c-3.38,1.32-6.76,2.64-10.14,3.95,4.55-1.34,9.11-2.67,13.66-4.01-3.63.88-7.26,1.76-10.9,2.64,4.78-.74,9.56-1.48,14.33-2.22l-11.32,1.15c4.94-.07,9.87-.14,14.81-.22l-11.72-.38c4.98.58,9.97,1.16,14.95,1.75l-11.83-2.14,14.98,4.01c-3.85-1.27-7.7-2.54-11.55-3.81,4.79,2.06,9.57,4.11,14.36,6.17-4.09-2.05-8.18-4.11-12.26-6.16,5.82,4.19,11.64,8.37,17.46,12.56-3.84-3.44-7.68-6.89-11.52-10.33,4.56,5.7,9.12,11.39,13.68,17.09-2.64-4.08-5.28-8.15-7.91-12.23l7.6,14.56-5.5-12.06c1.85,5.18,3.69,10.37,5.54,15.55-1.29-4.3-2.57-8.59-3.86-12.89,1.14,5.43,2.28,10.87,3.42,16.3l-2.03-13.23c.37,5.55.73,11.11,1.1,16.66l-.18-13.5c-.61,6-1.02,12.01-1.25,18.03.04.61.16.62.36.05.35-1.33.59-2.69.74-4.06l.56-3.93c.65-4.15.97-8.32.97-12.53-.13-.58-.42-1.09-.87-1.51-3.41-4.24-6.86-8.45-10.37-12.61-.26-.24-.58-.38-.94-.42-3.21-.94-6.66-1.39-9.96-1.93-2.21-.4-4.44-.64-6.69-.72-.74,0-1.46.16-2.16.48-.98.1-1.87.43-2.66.99-1.43.99-2.83,2.02-4.22,3.07-1.4,1.04-2.77,2.11-4.12,3.2-1.48,1.41-2.9,2.88-4.25,4.42-.34.32-.54.73-.59,1.22-.42,1.6-.8,3.21-1.15,4.84-.37,1.62-.7,3.24-.99,4.87-.16.47-.16.92.02,1.35,9.82,7.94,19.64,15.88,29.46,23.82.61-.09,1.16-.34,1.64-.76,1.33-.86,2.65-1.74,3.95-2.64,1.64-1.11,3.26-2.24,4.88-3.38,1.15-.75,2.24-1.58,3.27-2.49,1.92-2.72,4.03-5.31,5.37-8.38,1.02-2.34,1.39-4.34,1.81-6.83-.61.22-1.13.59-1.56,1.12-1.73,1.64-3.43,3.3-5.1,4.99-1.69,1.67-3.35,3.38-4.98,5.1-.52.42-.9.94-1.12,1.56Z"/>
        <path class="cls-16" d="M252.74,299.16l-2.9,7.47,1.51-1.56-5.69,4.37,2.1-1.1-4.81,2.05,2.34-.79-5.22,1.2,2.55-.46c-4.84-.84-9.68-1.67-14.52-2.51l3.18,1.39-13.55-14.75,1.98,3.75c-1.07-3.49-2.14-6.99-3.22-10.48l.98,4.43-.92-7.93.39,4.64.12-8.12-.23,4.69,1.24-8.18-.87,4.66c.84-3.01,1.68-6.03,2.51-9.04l-2.02,5.81,3.74-7.9-2.18,4.19,4.68-7.13-2.68,3.72,5.49-6.06-3.06,3.18,6.16-5.14-3.39,2.6c2.25-1.35,4.51-2.71,6.76-4.06l-3.55,1.99c2.37-1.02,4.73-2.03,7.1-3.05l-3.64,1.35,11.13-1.84-3.41.2,10.98,1.54-2.82-.68,6.19,2.13-2.59-1.15c9.03,4.62,13.8,11.2,14.31,19.72.66,2.6.75,5.21.26,7.85-.74,3.77-2.3,7.18-3.96,10.62-.12.24-.48.94-.22,1.19.27.27.52.06.66-.2,1.53-2.78,2.93-5.52,3.82-8.59.73-2.51,1.01-5.02,1.01-7.64.02-5.85-2.12-12-5.87-16.54-6.03-7.3-15.95-10.41-25.16-8.96-6.02.94-11.78,4.27-15.68,8.9-.9,1.06-1.77,2.29-2.47,3.49-.65,1.05-1.13,2.18-1.43,3.4-.65,1.18-1.12,2.42-1.42,3.71-.7,2.89-.97,5.77-.76,8.74.37,5.27,2.21,10.68,5.66,14.76,1.78,2.11,3.96,4.34,6.48,5.51,3.85,1.79,7.72,3.36,12.07,3.05,3.29-.24,6.33-1.24,9-3.18,1.09-.8,2.1-1.76,3-2.77,2.16-2.43,2.85-5.26,3.3-8.35.1-.67-.94.16-.94.16-.44.34-1.43,1.13-1.48,1.75Z"/>
        <path class="cls-16" d="M254,299.91c.37,3.79-1.23,6.89-4.82,9.28l3.13-2.54-5.64,3.99,4.36-2.58c-2.39,1.19-4.77,2.39-7.16,3.58l4.71-1.96c-2.23.71-4.46,1.41-6.7,2.12l3.96-.95-7.06,1.09,4.13-.36-7.28-.03,4.2.23-7.4-1.14,4.22.85c-2.77-.8-5.55-1.61-8.32-2.41l5.38,1.94c-2.41-1.18-4.83-2.36-7.24-3.55l4.03,2.19-6.69-4.59,3.75,2.78-5.88-5.42,3.4,3.35-5.15-6.32,3.01,3.91c-1.45-2.34-2.9-4.68-4.34-7.01l2.49,4.39-3.41-7.71,1.94,4.83-2.41-8.21,1.29,5.14c-.43-2.88-.86-5.76-1.3-8.64l.61,5.41c-.05-2.95-.1-5.91-.16-8.86l-.13,5.5c.36-2.99.72-5.98,1.08-8.97l-.89,5.53,2.54-10.17-2.17,6.9,3.73-8.69-2.49,5.11,4.87-7.99-3.17,4.69,5.85-7.01-3.75,4.14,6.73-6.08c-1.43,1.18-2.85,2.37-4.28,3.55l7.47-5.03-4.64,2.85,8.03-3.92-4.95,2.12c2.81-.89,5.63-1.79,8.44-2.68l-5.06,1.36,8.65-1.49-5.1.6,8.69-.17-4.96-.12c2.86.34,5.71.68,8.57,1.02l-4.75-.82,9.23,2.43-5.69-1.93c2.62,1.22,5.24,2.44,7.86,3.66l-4-2.08,7.03,4.57-3.47-2.55c1.94,1.79,3.88,3.59,5.82,5.38l-2.92-2.88c1.64,2,3.27,4,4.91,6.01l-2.34-3.17,3.78,6.52-1.79-3.33,2.81,6.88-1.21-3.45,1.62,10.77-.16-3.42-1.55,10.66.77-3.16-2.14,6.36c.02-.06-.59,1.32-.21,1.48.4.16.89-1.19.9-1.19.94-2.03,1.78-4.05,2.39-6.21.88-3.05.98-6.21.71-9.35-.37-4.22-1.79-8.27-4.06-11.85-1.42-2.24-3.08-4.02-5.1-5.72-1.04-.89-2.2-1.6-3.49-2.12-1.03-.8-2.14-1.42-3.33-1.86-1.16-.46-2.43-.83-3.64-1.14-7.63-1.99-16-.19-22.3,4.46-2.53,1.87-5.45,4.73-6.75,7.7l-.51,1.4-2.76,8.35c-.27,1.93-.23,3.86-.09,5.8.36,5.2,2.36,10.5,5.72,14.52,1.56,1.86,3.69,3.84,5.85,5.03,1.15.64,2.53,1.1,3.72,1.58,1.94.78,3.56,1.37,5.64,1.58.55.05,1.05.06,1.61.02,1.88-.11,3.93-.08,5.74-.63s3.56-1.31,5.02-2.38c2.19-1.61,4.27-3.23,5.97-5.38,2.05-2.6,2.72-5.32,3.1-8.56.11-.95-1.63.84-1.52.74-.75.71-1.47,1.43-2.18,2.18-.41.36-.74.78-1,1.26Z"/>
        <path class="cls-16" d="M253.58,300.84l-.29,3.14.08-.34-2.81,5.05,3.84-3.84-5.51,5.07c2.33-1.91,4.65-3.82,6.98-5.73-3.16,2.42-6.32,4.83-9.48,7.25l7.48-4.91c-3.43,1.99-6.85,3.98-10.28,5.97l7.97-4.01-10.94,4.58,8.33-2.88-11.45,2.98,8.64-1.72-11.82,1.3c2.89-.16,5.79-.33,8.68-.49-3.97-.15-7.93-.29-11.9-.44l8.66.76-11.7-2.11c2.83.71,5.66,1.43,8.48,2.14-3.82-1.36-7.65-2.72-11.47-4.09l7.93,3.28-10.59-5.66,7.33,4.39c-3.16-2.37-6.31-4.74-9.47-7.1,2.18,1.78,4.35,3.55,6.53,5.33-2.77-2.78-5.53-5.57-8.3-8.35,1.9,2.07,3.8,4.15,5.7,6.22-2.33-3.14-4.66-6.27-6.99-9.41,1.56,2.29,3.12,4.59,4.68,6.88-1.86-3.43-3.71-6.85-5.57-10.28,1.22,2.5,2.43,5,3.65,7.5-1.35-3.64-2.7-7.29-4.04-10.93l2.52,7.83c-.83-3.79-1.65-7.59-2.48-11.38l1.38,8.12c-.28-3.86-.56-7.73-.83-11.59l.24,8.11.8-11.62-.92,8.05,2.35-11.3-2.2,7.86,4.23-11.01-3.21,7.3c1.89-3.37,3.78-6.74,5.67-10.11-1.4,2.23-2.8,4.46-4.2,6.69l6.98-8.94-5.03,5.93c2.71-2.6,5.42-5.21,8.12-7.81l-5.83,5.14c3.02-2.16,6.04-4.32,9.06-6.48-2.13,1.4-4.27,2.79-6.4,4.19,3.28-1.71,6.56-3.42,9.84-5.13l-6.94,3.22c3.47-1.21,6.94-2.43,10.41-3.64l-7.22,2.18c3.6-.72,7.21-1.44,10.81-2.16-2.49.38-4.97.76-7.46,1.13,3.66-.2,7.31-.4,10.97-.59l-7.46.08,11,.95c-2.47-.33-4.93-.65-7.4-.98,3.54.8,7.07,1.59,10.61,2.39l-7.23-2.16,10.42,4.22-6.75-3.11c3.2,1.87,6.4,3.74,9.59,5.6l-6.21-4.04,7.25,5.85-4.35-3.89,7.37,7.92c-1.6-1.87-3.2-3.74-4.8-5.6,2.05,2.94,4.1,5.89,6.14,8.83-1.31-2.07-2.63-4.14-3.94-6.21,1.62,3.22,3.25,6.43,4.87,9.65-1.02-2.26-2.04-4.51-3.06-6.77,1.16,3.41,2.32,6.82,3.47,10.23l-2.08-7.12c.68,3.57,1.36,7.13,2.04,10.7l-1.08-7.43.54,10.91-.05-7.51-1,11.02,1.01-7.53c-1.21,3.78-2.06,7.62-2.52,11.53.02.36.14.4.35.1.38-.7.66-1.44.86-2.22.46-1.45.89-2.91,1.3-4.38.29-1.31.68-2.58,1.19-3.83.24-2.42.17-4.84-.22-7.24-.77-4.55-2.85-9.7-6.2-13-1.79-1.76-3.81-3.62-6.06-4.8-1.95-1.03-4.29-1.54-6.41-2.11-4.84-1.31-10.03-1.62-14.84-.09-2.8.89-4.04,1.68-6.11,3.47-.87.74-1.72,1.5-2.56,2.27-1.92,1.8-3.77,3.67-5.56,5.61-.38.75-.66,1.53-.85,2.35-1.94,3.72-2.83,7.63-2.67,11.71.04,2.4.42,4.75,1.13,7.05.68,2.3,1.67,4.46,2.97,6.47,1.56,1.89,3.79,3.42,5.72,4.91,5.6,4.35,13.98,6.67,20.89,4.16.84-.36,1.64-.81,2.39-1.34,1.48-.94,2.95-1.9,4.4-2.89,2.47-1.7,4.42-4.02,6.07-6.53,1.89-2.87,2.52-5.66,3.03-8.95-.43.06-.79.27-1.08.64-1.13,1.03-2.23,2.1-3.3,3.19-1.09,1.07-2.15,2.17-3.19,3.3-.37.29-.58.65-.64,1.08Z"/>
      </g>
    </g>
  </g>
  <g id="Layer_2" data-name="Layer 2">
    <g>
      <line class="cls-14" x1="235.19" y1="250.78" x2="224.44" y2="133.28"/>
      <path class="cls-23" d="M234.69,250.83c-3.21-18.8-6.29-39.47-8.86-58.43-.66-4.88-1.5-9.74-2.29-14.6-1.57-9.76-1.72-19.62-1.28-29.51.27-4.96.7-9.94,1.68-14.96,0,0,1-.09,1-.09,3.62,9.42,5.61,19.11,7.17,28.97,1.61,9.74,1.22,19.65,1.69,29.47.37,7.34.97,22.16,1.19,29.51.29,9.85.59,19.69.7,29.56,0,0-1,.09-1,.09h0Z"/>
    </g>
    <g>
      <line class="cls-14" x1="255.23" y1="248.48" x2="261.72" y2="187.37"/>
      <path class="cls-23" d="M254.93,248.45c.18-9.94.6-20.82,1.16-30.78.14-2.56.18-5.13.25-7.7.14-5.16,1.13-10.2,2.47-15.19.71-2.5,1.49-4.99,2.62-7.45l.6.06c1.49,7.69,1.52,15.52.22,23.2-.88,4.38-1.89,10.71-2.59,15.18-1.26,7.35-2.68,15.45-4.12,22.74,0,0-.6-.06-.6-.06h0Z"/>
    </g>
    <g>
      <line class="cls-14" x1="273.27" y1="251.65" x2="292.04" y2="225.22"/>
      <path class="cls-23" d="M273.11,251.54c3.24-5.96,6.91-11.66,10.28-17.55,2.13-3.55,5-6.58,8.49-8.88,0,0,.33.23.33.23-1.26,5.48-4.53,9.97-8.24,14.02-3.41,4.22-6.92,8.35-10.53,12.4,0,0-.33-.23-.33-.23h0Z"/>
    </g>
    <g>
      <line class="cls-14" x1="210.3" y1="251.89" x2="197.69" y2="204.29"/>
      <path class="cls-23" d="M209.96,251.98c-3.03-7.4-6.06-15.59-8.68-23.17-.67-1.95-1.47-3.86-2.22-5.78-1.52-3.88-2.06-7.98-2.2-12.15-.04-2.11.03-4.25.48-6.49,0,0,.68-.18.68-.18,4.02,4.98,6.68,10.81,7.74,17.05.44,3.56,1.38,8.62,2.05,12.19,1,5.92,2.07,12.43,2.82,18.36,0,0-.68.18-.68.18h0Z"/>
    </g>
    <g>
      <line class="cls-14" x1="188.36" y1="258.6" x2="168.42" y2="238.37"/>
      <path class="cls-23" d="M188.18,258.78c-3.73-2.74-7.67-5.89-11.21-8.89-4.12-2.96-7.36-6.13-8.72-11.35,0,0,.36-.35.36-.35,3.8,1.16,6.73,3.09,9.06,6.03,1.19,1.7,3.07,4.01,4.4,5.63,2.14,2.74,4.47,5.75,6.47,8.58,0,0-.36.35-.36.35h0Z"/>
    </g>
    <g>
      <line class="cls-14" x1="239.03" y1="334.76" x2="236.62" y2="376.68"/>
      <path class="cls-23" d="M239.48,334.79c.73,5.09,1.22,10.73,1.64,15.86.15,3.14.42,7.49.86,10.56.46,5.59-1.44,10.97-4.9,15.49,0,0-.9-.05-.9-.05-2.16-3.4-3.04-6.92-3.44-10.71-.45-3.56.92-6.98,1.5-10.43,0,0,.91-5.2.91-5.2,1.01-5.06,2.13-10.59,3.44-15.57,0,0,.9.05.9.05h0Z"/>
    </g>
    <g>
      <line class="cls-14" x1="262.08" y1="334.9" x2="279.01" y2="366.63"/>
      <path class="cls-23" d="M262.3,334.78c1.76,2.46,3.41,4.98,5.11,7.46l2.48,3.77,2.41,3.81c.8,1.27,1.68,2.5,2.53,3.74.84,1.25,1.57,2.56,2.14,3.95,1.12,2.8,2.05,5.7,2.25,8.99l-.44.24c-2.63-1.99-4.52-4.38-6.22-6.87-.84-1.25-1.53-2.58-2.09-3.98-.56-1.4-1.09-2.82-1.7-4.19l-1.82-4.12-1.75-4.16c-1.11-2.8-2.29-5.57-3.35-8.4l.44-.24Z"/>
    </g>
    <g>
      <line class="cls-14" x1="289.22" y1="332.65" x2="301.87" y2="349.59"/>
      <path class="cls-23" d="M289.5,332.44c1.5,1.08,2.89,2.24,4.29,3.4l2.04,1.77,1.96,1.83c.64.62,1.41,1.15,2.11,1.72.71.57,1.25,1.27,1.61,2.1.36.83.62,1.73.76,2.73.12,1.01.16,2.08-.12,3.39l-.56.42c-1.34-.1-2.35-.45-3.28-.85-.92-.41-1.71-.92-2.4-1.5-.69-.58-1.21-1.3-1.55-2.14-.35-.84-.63-1.73-1.05-2.52l-1.2-2.4-1.12-2.46c-.71-1.67-1.43-3.33-2.04-5.07l.56-.42Z"/>
    </g>
    <g>
      <line class="cls-14" x1="211.05" y1="330.33" x2="203.99" y2="367.98"/>
      <path class="cls-23" d="M211.35,330.38c-.26,6.22-.81,13-1.47,19.21-.34,3.17-.16,6.45-1.17,9.52-1.01,3.19-2.27,6.19-4.42,8.92,0,0-.59-.11-.59-.11-1.35-4.83-1.38-9.85.02-14.61.92-2.64,1.98-6.5,2.72-9.23,1.32-4.48,2.8-9.4,4.31-13.81,0,0,.59.11.59.11h0Z"/>
    </g>
    <g>
      <line class="cls-28" x1="192.05" y1="331.3" x2="175.13" y2="353.82"/>
      <path class="cls-23" d="M192.21,331.42c-1.15,2.07-2.4,4.07-3.59,6.11-1.22,2.02-2.47,4.01-3.75,5.99-.64.99-1.21,2.02-1.81,3.04-.6,1.01-1.3,1.96-2.1,2.83-.8.87-1.65,1.69-2.59,2.46-.93.77-1.92,1.5-3.08,2.09l-.32-.24c.25-1.28.67-2.43,1.15-3.54.47-1.11,1.03-2.16,1.64-3.17.61-1.01,1.32-1.94,2.13-2.8.81-.86,1.65-1.7,2.42-2.59,1.54-1.78,3.11-3.53,4.71-5.27,1.62-1.71,3.2-3.46,4.87-5.15l.32.24Z"/>
    </g>
  </g>
  <g id="Layer_5" data-name="Layer 5">
    <text class="cls-15" transform="translate(0 321.05)"><tspan x="0" y="0">The</tspan><tspan class="cls-24" x="124.33" y="0">W</tspan><tspan class="cls-20" x="194.53" y="0">aterBar</tspan></text>
  </g>
  <g id="Layer_6" data-name="Layer 6">
    <text class="cls-13" transform="translate(77.41 359.01) scale(1.59 1)"><tspan x="0" y="0">ex</tspan><tspan class="cls-11" x="19.5" y="0">p</tspan><tspan x="30.22" y="0">erience </tspan><tspan class="cls-12" x="96.58" y="0">h</tspan><tspan x="107.25" y="0">ighd</tspan><tspan class="cls-12" x="144.35" y="0">ra</tspan><tspan class="cls-26" x="161.25" y="0">tion</tspan></text>
  </g>
</svg>